<?xml version="1.0" encoding="UTF-8" standalone="no"?>
<svg
   xmlns:dc="http://purl.org/dc/elements/1.1/"
   xmlns:cc="http://creativecommons.org/ns#"
   xmlns:rdf="http://www.w3.org/1999/02/22-rdf-syntax-ns#"
   xmlns:svg="http://www.w3.org/2000/svg"
   xmlns="http://www.w3.org/2000/svg"
   viewBox="0 0 666.66669 666.66669"
   height="666.66669"
   width="666.66669"
   xml:space="preserve"
   id="svg2"
   version="1.1"><metadata
     id="metadata8"><rdf:RDF><cc:Work
         rdf:about=""><dc:format>image/svg+xml</dc:format><dc:type
           rdf:resource="http://purl.org/dc/dcmitype/StillImage" /><dc:title></dc:title></cc:Work></rdf:RDF></metadata><defs
     id="defs6" /><g
     transform="matrix(1.3333333,0,0,-1.3333333,0,666.66667)"
     id="g10"><g
       transform="scale(0.1)"
       id="g12"><path
         id="path16"
         style="fill:#e8ccfc;fill-opacity:1;fill-rule:nonzero;stroke:none"
         d="m 1746.14,1042.02 c -16.65,42.21 -34.4,88.41 -38.01,127.32 -3.13,33.52 -11.32,65.23 -19.19,89.57 2.01,2.68 3.81,5.51 5.38,8.49 28.58,-45.06 54.36,-75.76 107.76,-106.44 33.24,-19.13 62.29,-28.43 82.58,-28.43 18.88,0 30.16,8.07 30.14,23.79 v 0 c 0,1.48 -0.1,3.02 -0.31,4.64 -0.25,1.98 -0.73,4.12 -1.4,6.41 -0.96,3.2 -2.29,6.67 -3.96,10.39 -19.75,44.05 -85.01,122.34 -83.58,156.14 1.69,38.71 -36.89,127.37 -36.89,127.37 16.76,3.35 51.99,102.35 73.82,109.05 21.81,6.72 98.98,102.36 154.34,156.04 53.08,51.46 275.66,216.83 236.49,365.02 -3.19,12.05 -9.36,23.07 -17.53,32.49 -27.08,31.2 -107.11,113.83 -267.61,209.86 -129.45,77.45 -192.46,101.89 -247.19,128.5 10.12,2.73 16.32,5.6 17.35,8.24 0.18,0.47 0.27,1.05 0.26,1.74 -0.01,2.15 -0.9,5.35 -2.48,9.43 -14.24,36.77 -85.09,144.41 -81.54,190.36 v 0 c 4.05,52.65 -5.64,237.68 29.4,310.01 35.05,72.33 35.05,72.33 35.05,72.33 l 96.47,-83.05 c 0,0 11.73,6.76 28.74,18.64 68.95,-43.42 166.94,-93.15 200.4,-113.24 30.2,-18.12 68.1,-21.74 93.59,-21.74 16.99,0 28.47,1.61 28.47,1.61 25.04,11.05 49.63,33.27 73.34,62.92 v 0 0 c 44.42,55.62 85.61,137.31 120.42,220.13 8.56,20.34 16.71,40.75 24.44,60.83 51.16,132.96 83.48,252.81 83.48,252.81 -13.49,13.53 -48.36,16.03 -72.28,16.03 -14.02,0 -24.29,-0.86 -24.29,-0.86 0,0 -10.07,-84.61 -88.08,-200.38 -2.24,-3.32 -4.48,-6.67 -6.7,-10.01 -9.99,-15.06 -19.75,-30.26 -29.14,-45.25 -43.97,-70.09 -80.26,-136.43 -97.25,-168.3 -6.66,-12.53 -10.37,-19.73 -10.37,-19.73 -4.37,3.45 -8.83,6.88 -13.36,10.27 -47.09,35.49 -100.57,68.51 -141.18,92.06 -6.22,3.62 -12.14,7.01 -17.68,10.15 0.04,0.21 0.09,0.41 0.13,0.61 v 0 0 0 c 0,0 -9.21,10.09 -17.86,19.82 -26.69,30.21 -77.13,89.75 -107.69,141.25 -41.56,69.97 -153.49,104.49 -251.35,133.56 -3.57,1.03 -7.14,2.09 -10.66,3.15 -68.53,20.34 -101.67,20.77 -170.9,53.98 132.98,56.51 304.64,81.64 494.23,81.64 263.78,0 562.16,-48.69 838.63,-129.26 91.87,-26.77 182.29,-36.61 268.23,-36.61 141.86,0 271.52,26.8 375.3,48.43 102.92,21.45 207.7,38.15 305.08,38.15 90.47,0 174.54,-14.43 244.69,-52.9 -31.83,-7.88 -58.09,-13.61 -70.42,-14.57 -28.47,-2.22 -96.95,-40.81 -145.03,-69.94 -29.66,-17.96 -51.56,-32.32 -51.56,-32.32 0,0 -32.05,-18.27 -80.9,-18.27 -17.55,0 -37.28,2.36 -58.46,8.77 0,0 -17.42,-4.58 -42.95,-12.06 -59.95,-17.56 -164.59,-51.09 -193.43,-78.77 -41.1,-39.47 -46.03,-37.82 -77.29,-52.62 -31.25,-14.8 -115.13,-110.2 -185.83,-162.82 -29.4,-21.9 -49.71,-37.52 -63.4,-48.3 -19.25,-15.17 -25.41,-20.77 -25.41,-20.77 v 0 0 l 9.35,-14.19 c -3.61,-1.77 -7.34,-3.65 -11.16,-5.64 -61.07,-31.9 -144.58,-90.37 -144.58,-90.37 -7.52,-1.57 -15.46,-3.92 -23.76,-6.9 v -0.03 c -103.88,-37.57 -192.49,-124.63 -241.38,-165.13 -39.48,-32.67 -106.28,-99.05 -106.28,-99.05 l 36.76,-86.59 c 0,0 17.54,9.85 46.87,23.02 h 0.03 c 3.27,1.47 6.73,3 10.33,4.56 29.63,12.83 68.83,27.88 112.98,39.84 52.45,14.23 107.39,41.07 178.54,81.61 l 0.03,0.02 v 0 0 c 60.41,34.41 107.6,63.92 107.6,63.92 81.75,31.08 138.71,80.3 139.35,80.86 l 25.1,-38.09 c 0,0 13.24,6.27 33.2,16.24 56.49,28.17 166.88,85.72 183.89,113.67 0,0 1.6,-9 3.84,-23.33 5.21,-33.28 13.87,-95.22 13.87,-139.29 0,-3.54 -0.06,-6.96 -0.17,-10.23 -0.36,-9.55 -1.19,-17.92 -2.75,-24.5 -11.49,-49.34 -27.95,-167.75 -55.9,-203.91 -27.97,-36.19 -60.86,-218.75 -60.86,-218.75 v 0 c 0,0 -19.73,-83.88 27.95,-172.69 19.84,-36.92 34.54,-151.29 19.74,-174.33 0,0 -19.74,-1.63 -62.49,-16.43 v 0 0 c 0,0 -19.03,16.01 -56.3,16.01 -10.49,0 -22.43,-1.26 -35.79,-4.52 -9.47,-2.3 -18.09,-7.46 -26.13,-14.77 -43.16,-39.26 -69.57,-140.59 -120.17,-195.55 -45.85,7.85 -89.16,13.46 -129.09,16.15 -11.42,0.78 -22.52,1.15 -33.36,1.15 -225.03,0 -328.59,-162.31 -459.16,-324.6 -124.39,-154.61 -273.24,-309.21 -575.15,-323.52 m -218.9,11.92 c -661.986,98.25 -656.869,699.38 -480.23,863.57 164.05,152.48 11.62,396.88 -84.748,674.32 25.25,-23.88 66.858,-41.92 116.458,-54.1 5.95,-91.87 9.22,-163.76 12.69,-164.92 0,0 0,-181.55 71.73,-247.79 71.39,-65.92 294.59,-298.49 318.17,-298.49 0.11,0 0.21,0 0.31,0.01 0,0 1.67,-36.41 28.52,-38.1 0,0 -36.92,-149.31 -21.83,-213.09 0,0 -23.48,-53.68 -11.72,-92.25 11.72,-38.62 -3.37,-77.19 -3.37,-100.68 0,-8.39 2.56,-27.04 8.84,-48.56 -0.29,-0.75 -5.46,-14.3 -9.4,-33.96 -2.46,-12.25 -4.43,-26.87 -4.43,-42.26 0,-14.67 1.79,-30.04 6.67,-44.69 11.64,-34.93 33.3,-103.22 52.34,-159.01 m 2651.36,335.53 c -5.94,0 -11.99,0.09 -18.13,0.25 1.59,17.14 1.93,35.79 1,55.98 -5.49,119.73 -171.29,394.32 -246.76,642.66 0.02,-0.03 0.02,-0.06 0.03,-0.07 v 0 0 c 0,-0.01 0.01,-0.01 0.01,-0.01 0,0 0.01,0 0.02,0.01 0.31,-0.06 2.78,-0.44 6.55,-0.44 16.19,0 56.3,7.09 51.04,78.2 -6.01,81.12 -18.88,134.81 -19.81,183.61 32.52,11.18 61.78,24.46 85.51,39.55 48.61,-369.92 387.51,-588.18 353.25,-870.04 -11.49,-94.51 -91.62,-129.71 -212.71,-129.7 m -378.11,177.11 c 0,0 -147.39,32.12 -234.39,32.12 -3.7,0 -7.28,-0.05 -10.75,-0.17 0,0 -52.07,11.65 -100.72,25.81 54.28,23.43 104.1,61.5 119.72,109.19 22.85,69.81 14.36,108.29 21.39,138.83 0,0 54.27,-165.16 204.75,-305.78 m -553.64,36.38 c -10.86,2.91 -21.71,5.8 -32.48,8.63 11.89,-0.65 24.87,-1.53 38.31,-2.7 -1.97,-1.95 -3.91,-3.92 -5.83,-5.93 m -1457.48,181.13 c 13.54,50.96 24.91,82.89 12.71,113.4 -13.42,33.58 -130.87,169.68 -130.87,169.68 l 261.73,-80.74 c 0,0 -89.82,-124.1 -143.57,-202.34 m 2095.76,428.72 c 0,0.04 -0.02,0.11 -0.02,0.14 0.01,0 0.03,-0.01 0.04,-0.01 0,-0.03 -0.01,-0.06 -0.01,-0.09 -0.01,-0.01 -0.01,-0.02 -0.01,-0.04 m 228.69,661.54 c -3.55,12.27 -7.54,20.51 -11.85,22.06 -6.19,2.21 -12.62,3.13 -18.64,3.3 -13.05,84.22 -30.01,164.35 -49.14,225.29 24.19,24.4 52.3,45.97 79.41,62.49 25.17,-101.8 18.61,-214.54 0.22,-313.14" /><path
         id="path18"
         style="fill:#54246d;fill-opacity:1;fill-rule:nonzero;stroke:none"
         d="m 2725.7,3761.48 h -362.77 c 0,0 18.69,120.06 71.04,120.06 1.02,0 2.06,-0.05 3.1,-0.14 15.14,-1.35 25.44,-16.69 32.19,-33.17 1.99,-4.85 6.35,-7.22 10.69,-7.22 4.73,0 9.44,2.82 11.02,8.33 14.47,50.7 44.08,128.09 89.96,128.09 47.45,0 49.02,-88.54 45.57,-142.47 -0.33,-5.17 3.83,-8.52 8.08,-8.52 2.41,0 4.85,1.08 6.51,3.53 11.03,16.22 26.51,31.88 45.23,31.88 2.53,0 5.12,-0.29 7.77,-0.9 43.26,-9.99 31.61,-99.47 31.61,-99.47" /><path
         id="path20"
         style="fill:#54246d;fill-opacity:1;fill-rule:nonzero;stroke:none"
         d="M 724.781,2588 H 362.008 c 0,0 18.699,120.05 71.035,120.05 1.023,0 2.051,-0.04 3.102,-0.13 15.144,-1.35 25.441,-16.7 32.191,-33.17 1.988,-4.86 6.348,-7.23 10.687,-7.23 4.739,0 9.45,2.83 11.02,8.33 14.473,50.71 44.082,128.1 89.961,128.1 47.453,0 49.019,-88.54 45.578,-142.47 -0.328,-5.18 3.824,-8.52 8.066,-8.52 2.418,0 4.86,1.08 6.52,3.52 11.02,16.23 26.504,31.88 45.219,31.88 2.535,0 5.125,-0.29 7.777,-0.9 43.266,-9.98 31.617,-99.46 31.617,-99.46" /><path
         id="path22"
         style="fill:#54246d;fill-opacity:1;fill-rule:nonzero;stroke:none"
         d="m 4574.41,3086.54 h -362.77 c 0,0 18.7,120.05 71.04,120.05 1.02,0 2.05,-0.04 3.1,-0.14 15.14,-1.34 25.44,-16.69 32.19,-33.16 1.99,-4.86 6.35,-7.23 10.68,-7.23 4.74,0 9.45,2.83 11.03,8.34 14.47,50.7 44.08,128.09 89.96,128.09 47.45,0 49.02,-88.54 45.57,-142.47 -0.32,-5.18 3.83,-8.52 8.07,-8.52 2.42,0 4.86,1.08 6.52,3.52 11.02,16.23 26.51,31.88 45.22,31.88 2.53,0 5.12,-0.29 7.77,-0.9 43.27,-9.98 31.62,-99.46 31.62,-99.46" /><path
         id="path24"
         style="fill:#f39c72;fill-opacity:1;fill-rule:nonzero;stroke:none"
         d="m 3055.88,2763.32 c 0,0 -57.14,-49.61 -139.36,-80.87 0,0 -47.19,-29.51 -107.6,-63.92 l -0.03,-0.02 c -71.15,-40.54 -126.09,-67.38 -178.54,-81.61 -44.15,-11.96 -83.35,-27.01 -112.98,-39.84 -3.6,-1.56 -7.06,-3.09 -10.33,-4.56 h -0.03 c -29.33,-13.17 -46.87,-23.02 -46.87,-23.02 l -36.76,86.59 c 0,0 66.8,66.38 106.28,99.05 48.89,40.5 137.5,127.56 241.38,165.13 v 0.03 c 8.3,2.98 16.24,5.33 23.76,6.9 0,0 83.51,58.47 144.58,90.37 20.26,10.56 38.02,18.2 49.5,19.83 0,0 97.81,-89.92 67,-174.06" /><path
         id="path26"
         style="fill:#ec7857;fill-opacity:1;fill-rule:nonzero;stroke:none"
         d="m 2826.05,2777.85 c 0,0 -34.78,38.58 -55.01,42.4 v 0.03 c 8.3,2.98 16.24,5.33 23.76,6.9 0,0 28.17,-28.37 31.25,-49.33" /><path
         id="path28"
         style="fill:#ec7857;fill-opacity:1;fill-rule:nonzero;stroke:none"
         d="m 3055.88,2763.32 c 0,0 -57.14,-49.61 -139.36,-80.87 0,0 -47.19,-29.51 -107.6,-63.92 42.03,29.8 108.41,93.52 159.4,137.11 34.81,29.77 15.59,67.78 1.45,103.35 -5.89,14.81 -21.19,40.56 -28.39,57.38 l -2,1.18 c 20.26,10.56 38.02,18.2 49.5,19.83 0,0 97.81,-89.92 67,-174.06" /><path
         id="path30"
         style="fill:#f39c72;fill-opacity:1;fill-rule:nonzero;stroke:none"
         d="m 2503.51,2525.36 11.13,-104.23 c 1.18,-11.02 -2.97,-21.96 -11.16,-29.45 l -60.82,-55.55 c -7.24,-6.62 -18.49,-6.1 -25.09,1.16 -5.53,6.08 -6.17,15.16 -1.53,21.95 l 45.15,66.14 -7.82,20 -26.36,-40.15 -21.2,-39.49 -10.76,-61.48 c -1.57,-8.95 -10.29,-14.77 -19.15,-12.78 -7.73,1.74 -13,8.91 -12.36,16.8 l 6.03,73.82 8.87,53.67 -21.79,-55.33 -23.88,-90.65 c -1.57,-5.99 -6.64,-10.43 -12.79,-11.23 -9.48,-1.22 -17.72,6.49 -17.15,16.02 l 4.72,79.56 16.3,57.25 -47.56,-79.64 -25.83,-56.17 c -2.85,-6.21 -9.83,-9.36 -16.38,-7.41 -7.27,2.18 -11.38,9.84 -9.19,17.1 l 19.99,66.09 33.71,64.72 -32.78,-51.47 -8.85,-20.21 c -1.84,-4.2 -6.75,-6.13 -10.96,-4.28 -3.66,1.6 -5.66,5.56 -4.79,9.45 l 5.18,23.05 22.79,47.58 175.11,116.13 c 0,0 29.33,9.9 79.22,-30.97" /><path
         id="path32"
         style="fill:#ec7857;fill-opacity:1;fill-rule:nonzero;stroke:none"
         d="m 2515.42,2496.21 c -3.6,-1.55 -5.11,-2.24 -8.38,-3.71 h -0.03 c 0,0 -2.68,13.78 -24.06,31.46 1.06,-0.35 17.06,-5.35 32.47,-27.75" /><path
         id="path34"
         style="fill:#2f2a42;fill-opacity:1;fill-rule:nonzero;stroke:none"
         d="m 4126.64,2703.44 c -3.62,-7.1 -11.42,-11.84 -19.83,-15 6.93,-106.2 4.44,-197.33 -11.52,-238.45 -49.19,-126.63 -467.93,-188.53 -568.6,-96.58 -100.65,91.94 -155.47,698.93 -19.79,794.7 101.29,71.51 313.84,83.15 415.06,84.46 42.37,0.54 80.94,-24.71 96.81,-63.99 25.41,-62.91 48.1,-162.64 64.56,-268.87 6.02,-0.17 12.45,-1.09 18.64,-3.3 20.98,-7.55 34.54,-173.65 24.67,-192.97" /><path
         id="path36"
         style="fill:#a3a2c0;fill-opacity:1;fill-rule:nonzero;stroke:none"
         d="m 3358.14,1450.6 c 3.63,-14.83 10.42,-29.7 21.32,-44.2 0,0 -44.34,-17.92 -85.49,-34.71 -31.33,-12.78 -82.65,-20.41 -115.89,-33.09 -8.28,-3.17 -15.43,-6.67 -20.89,-10.62 -1.41,-1.01 -2.7,-2.06 -3.85,-3.15 -18.38,-17.11 -114.69,-57.43 -145.09,-64.67 -3.07,-0.74 -5.46,-1.14 -7.05,-1.14 -9.08,0 -21.84,3.93 -29.59,16.36 v 0.02 c -6.95,11.18 -9.87,29.17 -2.47,57.31 7.15,27.26 30.21,60.17 53.03,87.81 27.83,33.67 61.45,62.04 99.21,84.03 35.41,20.62 80,47.54 88.71,57.1 27.78,30.56 52.63,65.79 92.09,81.42 9.78,3.85 22.64,5.04 36.43,4.56 41.83,-1.39 92.35,-17.57 92.35,-17.57 0,0 -95.03,-89.06 -72.82,-179.46" /><path
         id="path38"
         style="fill:#2f2a42;fill-opacity:1;fill-rule:nonzero;stroke:none"
         d="m 3338.61,1647.62 c -19.12,-13.84 -49.49,-38.04 -61.97,-60.07 -18.87,-33.3 -92.88,-67.83 -124.95,-88.81 -32.07,-20.97 -155.64,-117.6 -167.75,-170.63 -10.53,-46.06 10.63,-63.6 24.3,-67.96 -3.06,-0.73 -5.46,-1.12 -7.03,-1.12 -17.27,0 -47.68,14.16 -32.07,73.68 7.15,27.27 30.2,60.18 53.04,87.81 27.83,33.67 61.44,62.04 99.2,84.02 35.4,20.63 80,47.56 88.7,57.11 27.78,30.57 52.63,65.79 92.1,81.41 9.78,3.87 22.64,5.04 36.43,4.56" /><path
         id="path40"
         style="fill:#878ba8;fill-opacity:1;fill-rule:nonzero;stroke:none"
         d="m 3001.2,1259.02 c -9.08,0 -21.84,3.93 -29.59,16.36 v 0.02 0 c 7.74,-12.43 20.5,-16.37 29.6,-16.37 1.08,0 2.54,0.19 4.35,0.54 -1.81,-0.36 -3.27,-0.55 -4.36,-0.55 m 7.03,1.13 c -6.97,2.23 -15.88,7.88 -21.55,18.98 20.68,5.47 57.88,16.62 80.56,31.15 21.09,13.55 49.88,35.44 77.56,50.19 -6.21,12.08 -15.47,27.43 -29.26,45.91 0.92,-0.66 22.85,-16.6 42.51,-39.42 10.56,4.68 20.73,7.9 30,8.76 27.49,2.51 105.26,27.34 150.08,58.24 12.38,-14.51 23.39,-22.79 23.39,-22.79 0,0 1.95,-3.97 11.59,-7.34 -13.69,-5.54 -47.37,-19.18 -79.14,-32.14 -31.33,-12.78 -82.65,-20.41 -115.89,-33.09 -8.28,-3.17 -15.43,-6.67 -20.89,-10.62 -1.41,-1.01 -2.7,-2.06 -3.85,-3.15 -18.38,-17.11 -114.69,-57.43 -145.09,-64.67 -0.01,-0.01 -0.01,-0.01 -0.02,-0.01" /><path
         id="path42"
         style="fill:#2f2a42;fill-opacity:1;fill-rule:nonzero;stroke:none"
         d="m 3001.21,1259.03 c -9.1,0 -21.86,3.94 -29.6,16.37 0.06,0.01 5.97,1.32 15.07,3.73 5.67,-11.1 14.58,-16.75 21.55,-18.98 v 0 c -0.96,-0.23 -1.85,-0.42 -2.67,-0.58 v 0 c -1.81,-0.35 -3.27,-0.54 -4.35,-0.54" /><path
         id="path44"
         style="fill:#a3a2c0;fill-opacity:1;fill-rule:nonzero;stroke:none"
         d="m 3142.31,1738.56 c -0.86,-49.38 9.54,-89.98 7.73,-107.02 -3.27,-31.26 -55.9,-93.75 -55.9,-93.75 -3.97,-35.71 -32.38,-86.22 -70.23,-113 v -0.01 l -0.53,-0.36 -1.24,-0.84 c -22.07,-15.09 -47.19,-22.07 -72.53,-13.4 -2.82,0.95 -5.62,2.09 -8.43,3.44 -48.45,23.33 -63.49,190.49 0,257.39 61.26,64.55 87.15,197.35 148.03,212.15 60.83,14.8 92.09,-11.5 92.09,-11.5 -1.61,-2.39 -3.15,-4.8 -4.58,-7.23 -26.1,-42.62 -33.72,-86.97 -34.41,-125.87" /><path
         id="path46"
         style="fill:#2f2a42;fill-opacity:1;fill-rule:nonzero;stroke:none"
         d="m 3181.29,1871.67 c -1.6,-2.39 -3.13,-4.81 -4.58,-7.23 -5.77,2.12 -63.51,22.45 -99.02,-0.17 -37.43,-23.83 -58.4,-114.32 -78.13,-138.99 -19.74,-24.66 -81.42,-115.1 -83.04,-150.49 -1.66,-35.35 -9.87,-122.5 23.83,-148 31.83,-24.06 70.35,-10.36 81.8,-3.22 -24.51,-16.77 -52.81,-23.48 -80.96,-9.94 -48.46,23.31 -63.5,190.47 0,257.38 61.25,64.56 87.16,197.35 148.01,212.15 60.84,14.81 92.09,-11.49 92.09,-11.49" /><path
         id="path48"
         style="fill:#c5cac1;fill-opacity:1;fill-rule:nonzero;stroke:none"
         d="m 3058.28,1458.35 c 19.81,25.48 33.22,55.73 35.86,79.44 v 0 0 c -2.64,-23.71 -16.05,-53.96 -35.86,-79.44 v 0" /><path
         id="path50"
         style="fill:#c5cac1;fill-opacity:1;fill-rule:nonzero;stroke:none"
         d="m 3116.15,1566.28 c 8.4,11.67 17.57,25.45 24.27,38.37 -6.7,-12.92 -15.86,-26.7 -24.27,-38.37 m 24.28,38.4 c 0.04,0.07 0.07,0.14 0.11,0.21 -0.04,-0.07 -0.07,-0.14 -0.11,-0.21 m 0.13,0.24 c 0.03,0.06 0.06,0.12 0.09,0.18 -0.03,-0.06 -0.06,-0.12 -0.09,-0.18 m 0.12,0.24 c 0.02,0.04 0.04,0.07 0.05,0.1 -0.01,-0.03 -0.03,-0.07 -0.05,-0.1 m 0.13,0.25 c 0.01,0.02 0.02,0.04 0.03,0.07 -0.01,-0.03 -0.02,-0.05 -0.03,-0.07 m 0.12,0.24 c 0.01,0.01 0.01,0.02 0.02,0.04 -0.01,-0.02 -0.01,-0.03 -0.02,-0.04 m 0.11,0.22 c 0.01,0.01 0.02,0.03 0.02,0.04 0,-0.02 -0.01,-0.03 -0.02,-0.04" /><path
         id="path52"
         style="fill:#878ba8;fill-opacity:1;fill-rule:nonzero;stroke:none"
         d="m 2972.16,1406.4 c -7.16,0 -14.41,1.1 -21.69,3.49 7.28,-2.39 14.53,-3.49 21.7,-3.49 1.57,0 3.14,0.05 4.7,0.16 -1.57,-0.11 -3.14,-0.16 -4.71,-0.16 m -21.81,3.53 c -0.02,0 -0.04,0.01 -0.06,0.02 0.02,-0.01 0.04,-0.02 0.06,-0.02 m 31.54,3.24 c -5.51,0 -11.26,0.59 -17.06,1.99 43.1,8.85 80.19,68.58 88.36,101.3 2.44,9.73 10.07,21.99 19.71,34.95 -14.72,8.48 -34.33,17.82 -49.52,18.04 0,0 4.32,1.57 12.63,1.57 9.5,0 24.2,-2.04 43.64,-10.78 14.34,18.22 31.16,37.03 42.11,51.71 3.25,-0.21 6.46,-0.31 9.63,-0.31 4.34,0 8.58,0.19 12.68,0.53 -0.93,-2.05 -1.93,-4.15 -3.01,-6.26 0,-0.01 -0.01,-0.03 -0.02,-0.04 -0.03,-0.06 -0.06,-0.12 -0.09,-0.18 -0.01,-0.02 -0.01,-0.03 -0.02,-0.04 -0.03,-0.06 -0.06,-0.12 -0.09,-0.17 -0.01,-0.03 -0.02,-0.05 -0.03,-0.07 -0.03,-0.05 -0.05,-0.1 -0.08,-0.15 -0.01,-0.03 -0.03,-0.06 -0.05,-0.1 -0.01,-0.02 -0.02,-0.04 -0.03,-0.06 -0.03,-0.06 -0.06,-0.12 -0.09,-0.18 -0.01,-0.01 -0.01,-0.02 -0.02,-0.03 -0.04,-0.07 -0.07,-0.14 -0.11,-0.21 0,-0.01 -0.01,-0.02 -0.01,-0.03 -6.7,-12.92 -15.87,-26.7 -24.27,-38.37 -9.67,-13.41 -18.33,-24.04 -21.1,-27.37 l -0.58,-0.72 -0.33,-0.4 v 0 c -2.64,-23.71 -16.05,-53.96 -35.86,-79.44 0,-0.01 -0.01,-0.01 -0.01,-0.02 -8.62,-11.09 -18.45,-21.28 -29.13,-29.64 -0.01,-0.01 -0.02,-0.01 -0.03,-0.02 -1.72,-1.34 -3.45,-2.63 -5.2,-3.88 v -0.01 l -0.53,-0.36 -1.24,-0.84 c -0.08,-0.05 -0.17,-0.11 -0.25,-0.17 -6.74,-4.11 -22.14,-10.24 -40,-10.24" /><path
         id="path54"
         style="fill:#2f2a42;fill-opacity:1;fill-rule:nonzero;stroke:none"
         d="m 2972.17,1406.4 c -7.17,0 -14.42,1.1 -21.7,3.49 v 0 c -0.04,0.01 -0.08,0.02 -0.12,0.04 v 0 c -0.02,0 -0.04,0.01 -0.06,0.02 v 0 c -0.22,0.07 -0.45,0.15 -0.68,0.23 3.95,1.98 8.94,3.7 15.2,4.98 0.01,0 0.02,0 0.02,0 5.8,-1.4 11.55,-1.99 17.06,-1.99 17.86,0 33.26,6.13 40,10.24 v 0 c -14.03,-9.54 -29.27,-15.8 -45.02,-16.85 v 0 c -1.56,-0.11 -3.13,-0.16 -4.7,-0.16" /><path
         id="path56"
         style="fill:#f39c72;fill-opacity:1;fill-rule:nonzero;stroke:none"
         d="m 4404.89,3452.55 -123.35,-68.73 -124.58,-69.42 c 0,0 -50.15,113.48 -5.35,183.79 0,0 10.46,6.12 25.75,14.16 11.2,5.89 25.02,12.8 39.2,19.11 8.1,3.61 16.34,7.01 24.28,9.9 0,0 12.33,40.97 33.3,87.11 11.13,24.45 12.54,41.14 11.4,51.41 -1.01,9.1 -4,13.2 -4,13.2 0,0 64.14,32.34 101.15,63.67 0,0 78.94,-180.85 22.2,-304.2" /><path
         id="path58"
         style="fill:#ec7857;fill-opacity:1;fill-rule:nonzero;stroke:none"
         d="m 4303.75,3491.6 c 0,0 -52.89,-13.22 -87.19,39.86 8.1,3.61 16.34,7.01 24.28,9.9 0,0 24.25,-43.17 62.91,-49.76" /><path
         id="path60"
         style="fill:#ec7857;fill-opacity:1;fill-rule:nonzero;stroke:none"
         d="m 4281.54,3383.82 -124.58,-69.42 c 0,0 -50.15,113.48 -5.35,183.79 0,0 10.46,6.12 25.75,14.16 0,0 1.39,-96.46 14.56,-120.27 13.15,-23.83 57.55,-15.73 89.62,-8.26" /><path
         id="path62"
         style="fill:#f39c72;fill-opacity:1;fill-rule:nonzero;stroke:none"
         d="m 4382.69,3756.75 c -14.8,-16.51 -79.73,-62.94 -89.25,-67.47 -3.33,-1.58 -7.92,0.44 -12.46,3.75 -4.42,-0.23 -33.45,-1.41 -49.39,5.79 -8.76,3.97 -8.64,16.36 -6.37,29.48 -21.04,5.08 -62.04,37.2 -61.47,67.77 0.62,33.3 36.39,35.77 36.39,35.77 0.61,38.24 37,32.07 37,32.07 1.84,16.65 32.07,24.05 32.07,24.05 3.08,14.19 22.82,16.65 34.54,11.1 11.71,-5.55 81.41,-86.34 84.49,-101.14 3.08,-14.8 -5.55,-41.17 -5.55,-41.17" /><path
         id="path64"
         style="fill:#ec7857;fill-opacity:1;fill-rule:nonzero;stroke:none"
         d="m 4279.2,3746.73 c 5.06,-19.12 -11.03,-21.58 -11.03,-21.58 3.26,2.49 3.01,10.65 2.1,17.68 0,0 -0.12,4.79 -1.9,10.51 l -0.02,0.05 c -1.95,6.24 -5.93,13.59 -13.95,17.2 -14.42,6.44 -20.96,2.04 -20.96,2.04 l -28.66,38.86 c 14.79,-8.93 34.53,-30.23 34.53,-30.23 25.48,1.04 35.01,-17.73 38.31,-28.02 5.01,0.4 10.56,2.57 12.56,9.52 4,13.9 -5.23,27.29 -5.23,27.29 l -39.79,52.89 c 0,0 54.27,-50.57 55.5,-70.31 1.63,-26.19 -21.46,-25.9 -21.46,-25.9" /><path
         id="path66"
         style="fill:#ec7857;fill-opacity:1;fill-rule:nonzero;stroke:none"
         d="m 4284.93,3859.59 c 0,0 35.5,-42.38 40.21,-53.96 5.12,-12.65 -2.89,-25.29 -12.14,-27.75 -9.25,-2.47 -14.52,2.25 -14.52,2.25 l 0.03,-13.36 c 0,0 35.87,-5.54 35.5,28.5 -0.17,17.02 -49.08,64.32 -49.08,64.32" /><path
         id="path68"
         style="fill:#ec7857;fill-opacity:1;fill-rule:nonzero;stroke:none"
         d="m 4331.75,3803.13 c 0,0 8.69,-8.3 19.18,-4.9 10.48,3.39 12.63,10.48 10.17,16.96 0,0 6.37,-6.27 0.93,-15.42 -7.1,-11.92 -24.73,-9.78 -30.28,-8.32 v 11.68" /><path
         id="path70"
         style="fill:#ec7857;fill-opacity:1;fill-rule:nonzero;stroke:none"
         d="m 4325.14,3698.82 c 0,0 -10.93,-21.07 -39.6,-18.94 -1.01,9.1 -4,13.2 -4,13.2 0,0 23.44,-1.66 43.6,5.74" /><path
         id="path72"
         style="fill:#ec9e51;fill-opacity:1;fill-rule:nonzero;stroke:none"
         d="m 3914.75,2088.28 c 0,0 -36.24,79.48 -29.61,124.57 6.63,45.09 67.68,-25.84 75.7,-44.95 8.02,-19.12 -3.39,-71.65 -46.09,-79.62" /><path
         id="path74"
         style="fill:#2f2a42;fill-opacity:1;fill-rule:nonzero;stroke:none"
         d="m 3454.63,1624.34 c -35.92,-15.52 -73.76,-24.62 -104.89,-25.81 32.88,24.11 71.66,33 71.66,33 10.39,-1.25 21.71,-3.84 33.23,-7.19" /><path
         id="path76"
         style="fill:#2f2a42;fill-opacity:1;fill-rule:nonzero;stroke:none"
         d="m 3555.35,1598.53 c 0,0 -52.07,11.65 -100.72,25.81 54.28,23.43 104.1,61.5 119.72,109.19 22.85,69.81 14.36,108.29 21.39,138.83 0,0 54.27,-165.16 204.75,-305.78 0,0 -160.2,34.91 -245.14,31.95 m 606.12,-152.83 c -6.56,143.09 -242.1,507.38 -278.76,783.67 l -147.59,53.24 c -19.59,5.65 -11.03,2.39 -34.11,9.25 0,0 -348.69,180.08 -504.92,-56.74 0,0 -19.73,-83.88 27.95,-172.69 19.84,-36.92 34.54,-151.29 19.74,-174.33 0,0 -19.74,-1.63 -62.49,-16.43 -26.2,-9.07 -66.62,-25.56 -93.99,-36.96 -34.47,-14.37 -60.91,-43.72 -70.06,-79.93 -4.73,-18.68 -5.34,-40.39 2.89,-64.04 26.3,-75.63 92.09,-83.87 134.84,-77.28 0,0 92.12,0 164.47,-13.16 8.98,-1.62 19.22,-2.19 30.3,-1.77 -20.01,-14.68 -37.85,-34.98 -43.45,-62.37 -14.8,-72.37 55.23,-124.99 55.23,-124.99 0,0 7.26,-14.8 63.19,-11.52 55.9,3.3 55.75,18.25 101.95,-0.47 46.21,-18.73 370.04,-152.48 476.93,-157.41 106.92,-4.94 164.48,60.85 157.88,203.93" /><path
         id="path78"
         style="fill:#52526b;fill-opacity:1;fill-rule:nonzero;stroke:none"
         d="m 3193.85,1837.68 c -5.02,-1.05 -10.12,-2.11 -15.25,-3.2 l 1.57,-7.39 c 5.11,1.08 10.2,2.15 15.22,3.19 5.14,1.08 10.2,2.12 15.15,3.18 l -1.57,7.39 c -4.94,-1.06 -10,-2.11 -15.12,-3.17" /><path
         id="path80"
         style="fill:#52526b;fill-opacity:1;fill-rule:nonzero;stroke:none"
         d="m 3039.6,1784.86 3.68,-6.59 c 8.92,4.98 18.07,9.92 27.18,14.69 l -3.5,6.69 c -9.18,-4.8 -18.39,-9.77 -27.36,-14.79" /><path
         id="path82"
         style="fill:#52526b;fill-opacity:1;fill-rule:nonzero;stroke:none"
         d="m 3130.57,1823.33 1.92,-7.3 c 8.85,2.33 18.66,4.7 30.03,7.23 l -1.65,7.37 c -11.46,-2.55 -21.37,-4.95 -30.3,-7.3" /><path
         id="path84"
         style="fill:#52526b;fill-opacity:1;fill-rule:nonzero;stroke:none"
         d="m 3291.83,1945.52 7.54,0.43 c -0.59,10.31 -1.59,20.79 -2.95,31.14 l -7.49,-0.99 c 1.34,-10.16 2.32,-20.46 2.9,-30.58" /><path
         id="path86"
         style="fill:#52526b;fill-opacity:1;fill-rule:nonzero;stroke:none"
         d="m 3229.79,2257.71 -7.54,0.5 c -0.7,-10.5 -1.13,-20.98 -1.26,-31.16 l 7.55,-0.11 c 0.13,10.05 0.56,20.4 1.25,30.77" /><path
         id="path88"
         style="fill:#52526b;fill-opacity:1;fill-rule:nonzero;stroke:none"
         d="m 3286.18,1993.81 7.43,1.33 c -1.89,10.63 -4.19,20.91 -6.81,30.58 l -7.29,-1.98 c 2.57,-9.45 4.82,-19.52 6.67,-29.93" /><path
         id="path90"
         style="fill:#52526b;fill-opacity:1;fill-rule:nonzero;stroke:none"
         d="m 3083.46,1807.71 3,-6.94 c 8.33,3.61 17.74,7 28.76,10.36 l -2.19,7.23 c -11.31,-3.45 -20.98,-6.93 -29.57,-10.65" /><path
         id="path92"
         style="fill:#52526b;fill-opacity:1;fill-rule:nonzero;stroke:none"
         d="m 3283.15,1866.2 c -1.84,-2.52 -5.36,-5.05 -10.45,-7.53 l 3.31,-6.79 c 6.29,3.07 10.62,6.29 13.24,9.86 2.62,3.56 4.8,9.03 6.51,16.26 l -7.35,1.73 c -1.84,-7.76 -3.87,-11.64 -5.26,-13.53" /><path
         id="path94"
         style="fill:#52526b;fill-opacity:1;fill-rule:nonzero;stroke:none"
         d="m 3281.44,2043.25 c -3.7,10.72 -7.87,20.49 -12.41,29.03 l -6.67,-3.55 c 4.36,-8.19 8.37,-17.59 11.93,-27.93 l 7.15,2.45" /><path
         id="path96"
         style="fill:#52526b;fill-opacity:1;fill-rule:nonzero;stroke:none"
         d="m 3228.57,2208.99 -7.54,-0.14 c 0.21,-10.88 0.77,-21.39 1.67,-31.23 l 7.51,0.69 c -0.87,9.66 -1.43,19.98 -1.64,30.68" /><path
         id="path98"
         style="fill:#52526b;fill-opacity:1;fill-rule:nonzero;stroke:none"
         d="m 3299.99,1927.7 -7.55,-0.08 c 0.01,-1.14 0.01,-2.25 0.01,-3.37 0,-9.86 -0.42,-18.99 -1.26,-27.16 l 7.51,-0.77 c 0.86,8.43 1.3,17.82 1.3,27.93 0.01,1.13 0,2.28 -0.01,3.45" /><path
         id="path100"
         style="fill:#52526b;fill-opacity:1;fill-rule:nonzero;stroke:none"
         d="m 3238.51,2130.7 c -2.54,9.02 -4.63,19.06 -6.21,29.86 l -7.47,-1.1 c 1.63,-11.11 3.78,-21.48 6.41,-30.81 l 7.27,2.05" /><path
         id="path102"
         style="fill:#52526b;fill-opacity:1;fill-rule:nonzero;stroke:none"
         d="m 3244.19,2113.99 -6.99,-2.85 c 3.98,-9.75 8.74,-18.23 14.15,-25.17 l 1.77,-2.36 6.09,4.47 -1.91,2.53 c -4.98,6.39 -9.39,14.26 -13.11,23.38" /><path
         id="path104"
         style="fill:#52526b;fill-opacity:1;fill-rule:nonzero;stroke:none"
         d="m 3226.6,1844.69 1.67,-7.37 c 12.68,2.89 22.31,5.4 30.31,7.9 l -2.25,7.21 c -7.81,-2.44 -17.26,-4.9 -29.73,-7.74" /><path
         id="path106"
         style="fill:#52526b;fill-opacity:1;fill-rule:nonzero;stroke:none"
         d="m 3616.8,1887.85 c -5.31,8.08 -8.27,12.66 -8.27,12.66 l 6.33,4.1 c 0,0 2.96,-4.56 8.25,-12.61 l -6.31,-4.15" /><path
         id="path108"
         style="fill:#52526b;fill-opacity:1;fill-rule:nonzero;stroke:none"
         d="m 3473.4,1589.7 c 7.99,-1.92 17.5,-4.35 29.08,-7.42 l 1.94,7.29 c -11.64,3.1 -21.21,5.54 -29.26,7.47 l -1.76,-7.34" /><path
         id="path110"
         style="fill:#52526b;fill-opacity:1;fill-rule:nonzero;stroke:none"
         d="m 3427.72,1604.2 -0.95,-7.49 c 7.61,-0.98 14.44,-1.63 20.3,-1.95 2.11,-0.11 5.25,-0.56 9.35,-1.33 l 1.4,7.41 c -4.48,0.85 -7.87,1.33 -10.34,1.45 -5.67,0.32 -12.32,0.96 -19.76,1.91" /><path
         id="path112"
         style="fill:#52526b;fill-opacity:1;fill-rule:nonzero;stroke:none"
         d="m 3519.41,1577.71 c 9.16,-2.5 18.87,-5.18 28.98,-7.99 l 2.02,7.27 c -10.11,2.81 -19.83,5.51 -29.01,8.01 l -1.99,-7.29" /><path
         id="path114"
         style="fill:#52526b;fill-opacity:1;fill-rule:nonzero;stroke:none"
         d="m 3565.28,1564.99 28.97,-8.12 2.04,7.27 -28.97,8.13 -2.04,-7.28" /><path
         id="path116"
         style="fill:#52526b;fill-opacity:1;fill-rule:nonzero;stroke:none"
         d="m 3611.14,1552.14 c 9.64,-2.7 19.34,-5.4 29,-8.07 l 2.01,7.28 c -9.65,2.66 -19.35,5.37 -28.98,8.05 l -2.03,-7.26" /><path
         id="path118"
         style="fill:#52526b;fill-opacity:1;fill-rule:nonzero;stroke:none"
         d="m 3730.11,1734.71 c -5.81,8.2 -11.58,16.42 -17.28,24.58 l -6.19,-4.33 c 5.69,-8.16 11.48,-16.4 17.3,-24.62 l 6.17,4.37" /><path
         id="path120"
         style="fill:#52526b;fill-opacity:1;fill-rule:nonzero;stroke:none"
         d="m 3875.94,1546.07 c -2.07,8.04 -7.28,16.92 -15.89,27.14 l -5.77,-4.86 c 7.76,-9.21 12.59,-17.34 14.34,-24.16 l 7.32,1.88" /><path
         id="path122"
         style="fill:#52526b;fill-opacity:1;fill-rule:nonzero;stroke:none"
         d="m 3757.85,1696.09 c -5.84,7.99 -11.72,16.13 -17.59,24.33 l -6.13,-4.39 c 5.88,-8.23 11.77,-16.38 17.63,-24.39 l 6.09,4.45" /><path
         id="path124"
         style="fill:#52526b;fill-opacity:1;fill-rule:nonzero;stroke:none"
         d="m 3380.14,1607.29 -0.52,-2.6 c 10.55,-2.11 20.53,-3.94 29.69,-5.42 l 1.2,7.45 c -4.4,0.71 -9.02,1.51 -13.79,2.39 -5.52,-0.7 -11.05,-1.31 -16.58,-1.82" /><path
         id="path126"
         style="fill:#52526b;fill-opacity:1;fill-rule:nonzero;stroke:none"
         d="m 3626.44,1873.23 c 4.78,-7.23 10.39,-15.68 16.66,-25.07 l 6.28,4.2 c -6.26,9.37 -11.87,17.81 -16.65,25.03 l -6.29,-4.16" /><path
         id="path128"
         style="fill:#52526b;fill-opacity:1;fill-rule:nonzero;stroke:none"
         d="m 3807.88,1513.73 c -2.68,-0.08 -6.13,0.1 -10.33,0.55 l -0.82,-7.5 c 3.79,-0.41 7.08,-0.63 9.78,-0.63 l 1.62,0.03 c 7.01,0.24 13.54,0.69 19.41,1.33 l -0.83,7.51 c -5.68,-0.64 -12.02,-1.06 -18.83,-1.29" /><path
         id="path130"
         style="fill:#52526b;fill-opacity:1;fill-rule:nonzero;stroke:none"
         d="m 3844.15,1589.86 c -4.92,4.68 -10.63,10.67 -16.98,17.83 l -5.66,-5.01 c 6.5,-7.32 12.37,-13.47 17.45,-18.29 1.25,-1.19 2.45,-2.35 3.62,-3.5 l 5.29,5.38 c -1.19,1.18 -2.43,2.38 -3.72,3.59" /><path
         id="path132"
         style="fill:#52526b;fill-opacity:1;fill-rule:nonzero;stroke:none"
         d="m 3815.8,1620.9 c -5.81,6.96 -12.15,14.8 -18.82,23.3 l -5.94,-4.67 c 6.72,-8.55 13.1,-16.44 18.97,-23.47 l 5.79,4.84" /><path
         id="path134"
         style="fill:#52526b;fill-opacity:1;fill-rule:nonzero;stroke:none"
         d="m 3762.16,1677.49 c 6.28,-8.46 12.37,-16.55 18.11,-24.06 l 6,4.6 c -5.72,7.47 -11.79,15.52 -18.05,23.96 l -6.06,-4.5" /><path
         id="path136"
         style="fill:#52526b;fill-opacity:1;fill-rule:nonzero;stroke:none"
         d="m 3843.52,1517.83 1.75,-7.34 c 14.02,3.36 23.16,8.51 27.97,15.76 l -6.29,4.17 c -3.65,-5.5 -11.54,-9.74 -23.43,-12.59" /><path
         id="path138"
         style="fill:#52526b;fill-opacity:1;fill-rule:nonzero;stroke:none"
         d="m 3657.06,1539.4 c 9.83,-2.68 19.56,-5.32 29.06,-7.84 l 1.95,7.3 c -9.5,2.52 -19.2,5.14 -29.02,7.83 l -1.99,-7.29" /><path
         id="path140"
         style="fill:#52526b;fill-opacity:1;fill-rule:nonzero;stroke:none"
         d="m 3749.47,1515.64 c 11.31,-2.59 21.28,-4.68 29.63,-6.2 l 1.35,7.43 c -8.23,1.5 -18.1,3.56 -29.29,6.13 l -1.69,-7.36" /><path
         id="path142"
         style="fill:#52526b;fill-opacity:1;fill-rule:nonzero;stroke:none"
         d="m 3679.58,1794.16 c 5.53,-8.08 11.22,-16.37 17.04,-24.79 l 6.21,4.3 c -5.81,8.41 -11.5,16.68 -17.02,24.75 l -6.23,-4.26" /><path
         id="path144"
         style="fill:#52526b;fill-opacity:1;fill-rule:nonzero;stroke:none"
         d="m 3675.95,1812.9 c -5.9,8.68 -11.53,17.02 -16.82,24.89 l -6.27,-4.21 c 5.3,-7.88 10.94,-16.23 16.84,-24.92 l 6.25,4.24" /><path
         id="path146"
         style="fill:#52526b;fill-opacity:1;fill-rule:nonzero;stroke:none"
         d="m 3703.13,1527.09 c 10.48,-2.72 20.31,-5.22 29.21,-7.38 l 1.79,7.33 c -8.87,2.17 -18.65,4.64 -29.11,7.35 l -1.89,-7.3" /><path
         id="path148"
         style="fill:#2f2a42;fill-opacity:1;fill-rule:nonzero;stroke:none"
         d="m 3454.63,1624.34 c -35.92,-15.52 -73.76,-24.62 -104.89,-25.81 32.88,24.11 71.66,33 71.66,33 10.39,-1.25 21.71,-3.84 33.23,-7.19" /><path
         id="path150"
         style="fill:#f4c549;fill-opacity:1;fill-rule:nonzero;stroke:none"
         d="m 4169.44,3295.9 c -0.51,-47.61 -3.02,-82.22 -3.02,-82.22 -8.84,-3.24 -18.27,-7.38 -28.08,-12.36 -65.08,-32.99 -145.92,-101.79 -165.58,-171.85 -7.82,-27.87 -11.45,-85.45 -12.86,-150.55 -1.15,-52.63 -0.84,-110.15 -0.11,-160.9 0.04,-2.74 0.06,-5.48 0.11,-8.16 1.02,-64.27 2.6,-116.25 2.6,-131.02 0,-41.1 -8.24,-162.82 -9.87,-215.44 -1.65,-52.62 13.15,-108.55 19.73,-197.35 6.57,-88.81 -57.62,-77.76 -57.62,-77.76 62.51,26.3 30.11,101.14 -9.82,117.23 -5.95,2.39 -12.83,4.98 -20.56,7.69 l -0.01,0.03 c -95.47,33.79 -316.88,90.83 -429.72,107.4 -168.07,24.68 -258.54,-85.52 -258.54,-85.52 0,0 32.89,182.56 60.86,218.75 27.95,36.16 44.41,154.57 55.9,203.91 1.56,6.58 2.39,14.95 2.75,24.5 1.58,44.18 -8.07,113.57 -13.7,149.52 -2.24,14.33 -3.84,23.33 -3.84,23.33 -17.01,-27.95 -127.4,-85.5 -183.89,-113.67 -19.96,-9.97 -33.2,-16.24 -33.2,-16.24 l -46.85,71.1 -92.93,141.06 c 0,0 6.16,5.6 25.41,20.77 13.69,10.78 34,26.4 63.4,48.3 70.7,52.62 154.58,148.02 185.83,162.82 31.26,14.8 36.19,13.15 77.29,52.62 28.84,27.68 133.48,61.21 193.43,78.77 25.53,7.48 42.95,12.06 42.95,12.06 80.13,-24.27 139.36,9.5 139.36,9.5 0,0 21.9,14.36 51.56,32.32 48.08,29.13 116.56,67.72 145.03,69.94 36.06,2.81 191.18,46.42 256.73,65.22 18.15,5.18 29.43,8.49 29.43,8.49 15.74,-58.3 18.46,-141.04 17.83,-202.29" /><path
         id="path152"
         style="fill:#2f2a42;fill-opacity:1;fill-rule:nonzero;stroke:none"
         d="m 3594.4,3237.5 c -70.91,-3.54 -101.04,49.02 -107.85,63.16 25.53,7.47 42.95,12.06 42.95,12.06 80.13,-24.27 139.36,9.5 139.36,9.5 0,0 21.9,14.36 51.56,32.32 8.58,-72.38 -46.08,-113.01 -126.02,-117.04" /><path
         id="path154"
         style="fill:#2f2a42;fill-opacity:1;fill-rule:nonzero;stroke:none"
         d="m 3114.17,2741.46 c -19.96,-9.97 -33.2,-16.24 -33.2,-16.24 l -139.78,212.16 c 0,0 6.16,5.6 25.41,20.77 l 147.57,-216.69" /><path
         id="path156"
         style="fill:#2f2a42;fill-opacity:1;fill-rule:nonzero;stroke:none"
         d="m 4166.42,3213.68 c -8.84,-3.24 -18.27,-7.38 -28.08,-12.36 12.26,119.35 -6.79,239.61 -16.16,288.38 18.15,5.18 29.43,8.49 29.43,8.49 27.98,-103.61 14.81,-284.51 14.81,-284.51" /><path
         id="path158"
         style="fill:#ed487d;fill-opacity:1;fill-rule:nonzero;stroke:none"
         d="m 3959.79,2718.02 c -115.26,50.45 -396.2,140.91 -644.19,-35.74 1.58,44.18 -8.07,113.57 -13.7,149.52 37.62,23.78 218.15,131.66 390.86,126.35 118.91,-3.65 212.47,-46.55 267.14,-79.23 -1.15,-52.63 -0.84,-110.15 -0.11,-160.9" /><path
         id="path160"
         style="fill:#2f2a42;fill-opacity:1;fill-rule:nonzero;stroke:none"
         d="m 3403.66,3708.53 c 0,0 -45.62,10.27 -51.27,-42.7 -4.83,-45.41 52.82,-62.42 52.82,-62.42 0,0 18.49,77.07 -1.55,105.12" /><path
         id="path162"
         style="fill:#2f2a42;fill-opacity:1;fill-rule:nonzero;stroke:none"
         d="m 3426.16,3631.59 c 0,0 -45.62,10.27 -51.26,-42.71 -4.84,-45.41 52.81,-62.42 52.81,-62.42 0,0 18.49,77.08 -1.55,105.13" /><path
         id="path164"
         style="fill:#2f2a42;fill-opacity:1;fill-rule:nonzero;stroke:none"
         d="m 3396.07,3697.84 c 0,0 -72.59,27.9 -47.77,107.96 24.83,80.06 119.43,48.19 119.43,48.19 0,0 3.49,55.8 65.93,58.67 62.43,2.88 85.1,-46.97 85.1,-46.97 0,0 42.23,41.95 93.61,29.37 51.4,-12.57 68.81,-74.94 52.87,-104.44 0,0 32.66,5.8 57.48,-32.23 24.83,-38.03 31.19,-94.44 0.37,-115.39 0,0 36.62,-40.1 16.64,-94.54 -19.97,-54.43 -73.66,-53.13 -73.66,-53.13 0,0 10.34,-70.93 -58.53,-88.21 -68.87,-17.28 -62.44,43.95 -62.44,43.95 0,0 -120.74,278.44 -249.03,246.77" /><path
         id="path166"
         style="fill:#f39c72;fill-opacity:1;fill-rule:nonzero;stroke:none"
         d="m 3683.43,3378.9 9.97,-48.82 c 2.54,-12.41 -2.35,-25.23 -12.6,-32.67 -88.39,-64.22 -155.74,-20.05 -169.91,1.73 10.68,10.02 200.44,189.58 203.49,290.53 0,0 21.79,-125.57 -30.95,-210.77" /><path
         id="path168"
         style="fill:#f39c72;fill-opacity:1;fill-rule:nonzero;stroke:none"
         d="m 3401.11,3562.37 c -3.7,-14.47 -4.94,-29.36 -3.71,-44.07 1.02,-12.71 3.87,-25.31 8.53,-37.35 l 30.95,-80.09 c 11.52,-29.79 40.73,-48.95 72.63,-47.55 36.57,1.6 85.42,9.94 127.78,38.14 79.9,53.21 80.23,175.4 80.23,175.4 0,0 -6.58,123.96 -109.48,170.91 -102.89,46.96 -207.56,-8.02 -207.56,-8.02 L 3388.5,3643 c -0.68,-4.84 -1.08,-9.69 -1.21,-14.54 -0.45,-16.3 2.07,-32.59 7.49,-48.08 l 6.33,-18.01" /><path
         id="path170"
         style="fill:#2f2a42;fill-opacity:1;fill-rule:nonzero;stroke:none"
         d="m 3484.88,3653.91 c 0,0 57.86,56.46 97.7,5.58 l -7.21,-13.01 c 0,0 -40.25,35.05 -86.77,-8.74 l -3.72,16.17" /><path
         id="path172"
         style="fill:#ec7857;fill-opacity:1;fill-rule:nonzero;stroke:none"
         d="m 3401.11,3562.37 c -3.7,-14.47 -4.94,-29.36 -3.71,-44.07 12.4,8.8 37.38,16.15 87.63,9.33 0,0 -26.96,21.9 -53.87,22.38 -7.23,0.13 -12.27,7.21 -10.03,14.08 l 15.03,46.03 c 0,0 -5.41,9.18 -16.85,12.64 -6.99,2.1 -20.8,4.64 -32.02,5.7 -0.45,-16.3 2.07,-32.59 7.49,-48.08 l 6.33,-18.01" /><path
         id="path174"
         style="fill:#2f2a42;fill-opacity:1;fill-rule:nonzero;stroke:none"
         d="m 3389.83,3642.32 c 19.52,-1.28 35.19,-6.86 35.19,-6.86 l 1.8,-15 c -13.91,4.71 -26.19,6.29 -36.88,5.92 -5.28,-0.18 -9.63,3.78 -9.36,8.49 l 0.01,0.17 c 0.23,4.33 4.38,7.6 9.24,7.28" /><path
         id="path176"
         style="fill:#ffffff;fill-opacity:1;fill-rule:nonzero;stroke:none"
         d="m 3424.1,3490.65 137.43,13.01 c 0,0 -15.77,-74.18 -88.86,-72.28 -57.32,1.49 -48.57,59.27 -48.57,59.27" /><path
         id="path178"
         style="fill:#ec7857;fill-opacity:1;fill-rule:nonzero;stroke:none"
         d="m 3517.66,3355.76 c 0,0 85.21,10.61 131.04,129.26 0,0 21.22,-43.74 -3.7,-106.6 -24.93,-62.86 -134.11,-79.28 -134.11,-79.28 l 6.77,56.62" /><path
         id="path180"
         style="fill:#f39c72;fill-opacity:1;fill-rule:nonzero;stroke:none"
         d="m 3682.15,3586.95 c 0,0 25.89,49.35 63.67,27.17 37.78,-22.19 16.71,-134.84 -38.11,-113.72 -54.83,21.11 -25.56,86.55 -25.56,86.55" /><path
         id="path182"
         style="fill:#2f2a42;fill-opacity:1;fill-rule:nonzero;stroke:none"
         d="m 3501.94,3610.39 c 0,0 8.05,24.52 30,24.63 32.02,0.16 38.18,-26.92 38.18,-26.92 0,0 -31.1,42.77 -68.18,2.29" /><path
         id="path184"
         style="fill:#2f2a42;fill-opacity:1;fill-rule:nonzero;stroke:none"
         d="m 3429.87,3593.29 c 0,0 -22.06,26.26 -35.15,-5.6 0,0 14.77,20.37 35.15,5.6" /><path
         id="path186"
         style="fill:#2f2a42;fill-opacity:1;fill-rule:nonzero;stroke:none"
         d="m 3396.07,3697.84 c 0,0 37.32,-9.39 68.78,12.33 31.47,21.71 23.84,41.01 23.84,41.01 0,0 12.82,-31.97 55.41,-28.7 42.58,3.26 48.46,15.11 48.46,15.11 0,0 -1.78,-47.66 33.05,-54.94 34.81,-7.27 55.88,20.97 55.88,20.97 0,0 -154.74,136.29 -207.95,99.92 -53.2,-36.36 -98.99,-55.52 -77.47,-105.7" /><path
         id="path188"
         style="fill:#2f2a42;fill-opacity:1;fill-rule:nonzero;stroke:none"
         d="m 3663.18,3697.03 c 0,0 -21.04,-40.84 14.65,-64.44 0,0 -1.15,-35.09 -12.74,-64.01 l 27.21,0.4 c 0,0 19.98,34.87 18.03,64.77 -1.94,29.88 -2.16,75.3 -47.15,63.28" /><path
         id="path190"
         style="fill:#ec7857;fill-opacity:1;fill-rule:nonzero;stroke:none"
         d="m 4382.69,3756.75 c 0,0 -6.17,-15.98 -15.22,-22.15 0,0 15.2,0.66 20.34,9.37 l -5.12,12.78" /><path
         id="path192"
         style="fill:#87c72f;fill-opacity:1;fill-rule:nonzero;stroke:none"
         d="m 3023.39,1424.41 0.52,0.38 v -0.03 z" /><path
         id="path194"
         style="fill:#ec9e51;fill-opacity:1;fill-rule:nonzero;stroke:none"
         d="m 3884.35,2213.24 c -95.47,33.79 -316.88,90.83 -429.72,107.4 -16.92,2.49 -33.06,3.61 -48.39,3.61 -136.99,0 -210.15,-89.13 -210.15,-89.13 0,0 32.89,182.56 60.86,218.75 27.95,36.16 44.41,154.57 55.9,203.91 1.56,6.58 2.39,14.95 2.75,24.5 v 0 c 25.76,18.35 51.85,33.8 78.1,46.74 -4.86,-170.87 -19.12,-287.29 92.85,-329.43 118.51,-44.63 381.47,-178.04 397.8,-186.35 m -803.38,511.98 -25.1,38.09 -21.75,33.01 v 0.01 l 46.85,-71.11 m 33.2,16.24 -65.96,96.86 c 41.68,22.59 143.2,77.59 271.23,146.75 0,0 36.37,-45.76 58.55,-110.56 -36.88,-18.58 -63.94,-35.03 -76.09,-42.71 v 0 c -2.24,14.33 -3.84,23.33 -3.84,23.33 -17.01,-27.95 -127.4,-85.5 -183.89,-113.67 v 0" /><path
         id="path196"
         style="fill:#2f2a42;fill-opacity:1;fill-rule:nonzero;stroke:none"
         d="m 3080.97,2725.22 v 0 l -46.85,71.11 -6.44,30.85 c 0,0 7.2,3.91 20.53,11.14 l 65.96,-96.86 c -19.96,-9.97 -33.2,-16.24 -33.2,-16.24" /><path
         id="path198"
         style="fill:#bd3cb9;fill-opacity:1;fill-rule:nonzero;stroke:none"
         d="m 3315.6,2682.28 c 0.11,3.27 0.17,6.69 0.17,10.23 0,44.07 -8.66,106.01 -13.87,139.29 v 0 c 12.15,7.68 39.21,24.13 76.09,42.71 9.99,-29.18 17.09,-62.2 16.72,-96.66 -0.19,-16.73 -0.56,-33.02 -1.01,-48.83 -26.25,-12.94 -52.34,-28.39 -78.1,-46.74" /><path
         id="path200"
         style="fill:#ec9e51;fill-opacity:1;fill-rule:nonzero;stroke:none"
         d="m 3959.9,2709.86 c 0,0 -0.45,3.06 -1.23,8.65 0.37,-0.16 0.75,-0.33 1.12,-0.49 v 0 c 0.04,-2.74 0.06,-5.48 0.11,-8.16 m 0,169.06 c -6.33,3.78 -13.18,7.7 -20.53,11.68 -6.57,79.19 -9.57,163.08 1.73,203.01 19.06,67.31 144.88,151.31 201.22,186.09 -0.09,-25.65 -1.28,-52.04 -3.98,-78.38 v 0 c -65.08,-32.99 -145.92,-101.79 -165.58,-171.85 -7.82,-27.87 -11.45,-85.45 -12.86,-150.55 v 0 m 206.52,334.76 v 0 0 m 0,0.02 v 0 0 m 2.21,45.4 c 0.36,10.9 0.66,23.32 0.8,36.79 0.01,0 0.01,0.01 0.01,0.01 -0.14,-13.47 -0.45,-25.9 -0.81,-36.8" /><path
         id="path202"
         style="fill:#2f2a42;fill-opacity:1;fill-rule:nonzero;stroke:none"
         d="m 4138.34,3201.32 v 0 c 2.7,26.34 3.89,52.73 3.98,78.38 15.74,9.72 26.07,15.6 27.11,16.19 -0.14,-13.47 -0.44,-25.89 -0.8,-36.79 v 0 c -0.9,-27.02 -2.16,-44.64 -2.21,-45.4 v 0 0 0 c 0,-0.01 0,-0.01 0,-0.02 v 0 0 0 0 0 c -8.84,-3.24 -18.27,-7.38 -28.08,-12.36" /><path
         id="path204"
         style="fill:#bd3cb9;fill-opacity:1;fill-rule:nonzero;stroke:none"
         d="m 3959.79,2718.02 c -0.37,0.16 -0.75,0.33 -1.12,0.49 -3.38,24.23 -12.99,95.99 -19.3,172.09 7.35,-3.98 14.2,-7.9 20.53,-11.68 v 0 c -0.54,-24.88 -0.76,-50.84 -0.76,-76.67 0,-28.82 0.26,-57.47 0.65,-84.23" /><path
         id="path206"
         style="fill:#2f2a42;fill-opacity:1;fill-rule:nonzero;stroke:none"
         d="m 3352.11,3225.18 c -35.96,-213.8 -29.38,-467.07 -29.38,-467.07 13.16,-67.43 -14.68,-123.04 -14.68,-123.04 -137.21,148.31 -42.88,590.11 8.1,679.33 62.64,109.62 154.4,-18.5 154.4,-18.5 l -46.93,-14.82 c 0,0 -16.27,22.94 -36.37,18.06 -20.11,-4.89 -35.14,-73.96 -35.14,-73.96" /><path
         id="path208"
         style="fill:#2f2a42;fill-opacity:1;fill-rule:nonzero;stroke:none"
         d="m 3739.79,3366.12 c 0,0 14.06,108.08 92.95,110.84 124.99,4.37 156.47,-324.14 166.34,-501.76 9.87,-177.62 -39.18,-213.39 -39.18,-213.39 l -1.52,101.14 c 0,0 -64.67,437.07 -96.69,513.97 -35.12,84.3 -65.2,42.65 -96.75,0.39 l -28.2,-12.99" /><path
         id="path210"
         style="fill:#f39c72;fill-opacity:1;fill-rule:nonzero;stroke:none"
         d="m 1007.75,3478.32 c -202.062,52.38 -360.012,242.94 -401.941,288.87 -3.668,4.03 -7.746,10.8 -12.075,19.83 l -0.027,0.03 c -40.09,83.1 -104.82,356.34 -119.238,418.27 -0.985,4.21 -1.715,7.43 -2.192,9.57 -0.48,1.96 -0.707,2.99 -0.707,2.99 l 114.938,50.24 c 0,0 9.367,-110.21 64.734,-199.12 55.363,-88.92 106.403,-229.85 106.403,-229.85 108.218,-53.26 223.988,-152.22 223.988,-152.22 60.397,-126.61 26.117,-208.61 26.117,-208.61" /><path
         id="path212"
         style="fill:#ec7857;fill-opacity:1;fill-rule:nonzero;stroke:none"
         d="m 1007.75,3478.32 c -202.062,52.38 -360.012,242.94 -401.941,288.87 -3.668,4.03 -7.746,10.8 -12.075,19.83 2.34,-1.99 151.778,-130.18 207.957,-162.65 56.618,-32.72 120.719,-61.79 152.204,-39.71 31.511,22.09 40.32,64.17 27.738,102.27 60.397,-126.61 26.117,-208.61 26.117,-208.61" /><path
         id="path214"
         style="fill:#f39c72;fill-opacity:1;fill-rule:nonzero;stroke:none"
         d="m 478.637,4212.07 c 22.16,0.74 99.453,20.66 109.051,25.04 3.351,1.53 4.75,6.35 5.132,11.95 3.008,3.24 22.575,24.73 27.297,41.57 2.582,9.26 -6.98,17.12 -18.496,23.81 9.629,19.39 11.367,71.45 -12.418,90.65 -25.91,20.93 -50.789,-4.89 -50.789,-4.89 -29.691,24.1 -48.351,-7.74 -48.351,-7.74 -13.946,9.28 -39.04,-9.12 -39.04,-9.12 -12.843,6.76 -27.418,-6.78 -30.695,-19.32 -3.277,-12.55 13.836,-117.86 23.195,-129.74 9.364,-11.87 35.114,-22.21 35.114,-22.21" /><path
         id="path216"
         style="fill:#ec7857;fill-opacity:1;fill-rule:nonzero;stroke:none"
         d="m 552.816,4284.93 c 11.399,-16.16 23.625,-5.42 23.625,-5.42 -4.003,-0.9 -10.101,4.54 -14.902,9.76 0,0 -3.586,3.17 -6.832,8.21 l -0.019,0.05 c -3.532,5.5 -6.614,13.27 -4.219,21.73 4.34,15.19 11.91,17.38 11.91,17.38 l -11.348,46.93 c -2.672,-17.08 0.957,-45.88 0.957,-45.88 -17.168,-18.86 -8.906,-38.22 -3.148,-47.36 -3.524,-3.59 -8.75,-6.44 -15.363,-3.5 -13.211,5.86 -17.543,21.53 -17.543,21.53 l -14.957,64.48 c 0,0 3.871,-74.08 18.199,-87.71 19.027,-18.08 33.64,-0.2 33.64,-0.2" /><path
         id="path218"
         style="fill:#ec7857;fill-opacity:1;fill-rule:nonzero;stroke:none"
         d="m 462.656,4353.07 c 0,0 9.657,-54.44 15.512,-65.48 6.395,-12.06 21.23,-14.04 29.066,-8.54 7.832,5.5 7.606,12.58 7.606,12.58 l 10.215,-8.61 c 0,0 -18.801,-31.05 -44.657,-8.89 -12.925,11.07 -17.742,78.94 -17.742,78.94" /><path
         id="path220"
         style="fill:#ec7857;fill-opacity:1;fill-rule:nonzero;stroke:none"
         d="m 475.828,4280.91 c 0,0 0.774,-11.99 -8.562,-17.84 -9.336,-5.85 -16.157,-2.95 -19.532,3.1 0,0 0.704,-8.9 11.215,-10.62 13.692,-2.23 23.379,12.66 25.836,17.85 l -8.957,7.51" /><path
         id="path222"
         style="fill:#ec7857;fill-opacity:1;fill-rule:nonzero;stroke:none"
         d="m 499.258,4212.07 c 0,0 -10.348,-8.18 -24.789,-6.75 -0.985,4.21 -1.715,7.43 -2.196,9.57 0,0 11.883,-3.6 26.985,-2.82" /><path
         id="path224"
         style="fill:#ec7857;fill-opacity:1;fill-rule:nonzero;stroke:none"
         d="m 590.41,4239.63 c 0,0 -12.058,-11.54 -22.754,-14.68 0,0 14.399,-1.01 24.282,6.03 l -1.528,8.65" /><path
         id="path226"
         style="fill:#ec7857;fill-opacity:1;fill-rule:nonzero;stroke:none"
         d="m 757.645,3839.15 c 0,0 -38.586,-32.32 -60.399,-35.68 0,0 44.086,-14.71 81.188,24.95 l -20.789,10.73" /><path
         id="path228"
         style="fill:#2f2a42;fill-opacity:1;fill-rule:nonzero;stroke:none"
         d="m 880.934,2861.87 c 4.507,-6.58 12.839,-10.28 21.586,-12.34 6.683,-106.22 20.793,-196.28 41.871,-235.03 64.949,-119.31 488.159,-127.24 576.279,-23.21 88.09,104.05 64.96,713.07 -81.83,790.73 -109.6,57.99 -321.89,42.41 -422.45,30.78 -42.077,-4.87 -77.12,-34.85 -87.839,-75.82 -17.172,-65.64 -26.949,-167.46 -29.707,-274.91 -5.949,-0.95 -12.219,-2.67 -18.078,-5.66 -19.832,-10.17 -12.082,-176.64 0.168,-194.54" /><path
         id="path230"
         style="fill:#f39c72;fill-opacity:1;fill-rule:nonzero;stroke:none"
         d="m 2468.37,3453.25 c 0,0 -32.32,-119.85 -83.48,-252.81 -7.73,-20.08 -15.88,-40.49 -24.44,-60.83 -34.81,-82.82 -76,-164.51 -120.42,-220.13 -23.71,-29.65 -48.3,-51.87 -73.34,-62.92 0,0 -71.72,-10.07 -122.06,20.13 -50.33,30.21 -246.63,127.5 -270.54,169.45 0,0 75.5,107.04 147.22,116.65 0,0 26.65,-13.76 64.41,-35.71 40.61,-23.55 94.09,-56.57 141.18,-92.06 4.53,-3.39 8.99,-6.82 13.36,-10.27 0,0 3.71,7.2 10.37,19.73 16.99,31.87 53.28,98.21 97.25,168.3 9.39,14.99 19.15,30.19 29.14,45.25 2.22,3.34 4.46,6.69 6.7,10.01 78.01,115.77 88.08,200.38 88.08,200.38 0,0 75.18,6.29 96.57,-15.17" /><path
         id="path232"
         style="fill:#ec7857;fill-opacity:1;fill-rule:nonzero;stroke:none"
         d="m 2384.89,3200.44 c -7.73,-20.08 -15.88,-40.49 -24.44,-60.83 l -112.57,73.17 c 9.39,14.99 19.15,30.19 29.14,45.25 l 107.87,-57.59" /><path
         id="path234"
         style="fill:#ec7857;fill-opacity:1;fill-rule:nonzero;stroke:none"
         d="m 2240.03,2919.48 c -23.71,-29.65 -48.3,-51.87 -73.34,-62.92 0,0 -71.72,-10.07 -122.06,20.13 -50.33,30.21 -246.63,127.5 -270.54,169.45 0,0 75.5,107.04 147.22,116.65 0,0 26.65,-13.76 64.41,-35.71 -4.38,-15.05 -21.78,-69.13 -53.01,-95.3 -36.49,-30.56 47.82,-101.02 120.81,-132.48 72.98,-31.46 123.84,-30.1 186.51,20.18" /><path
         id="path236"
         style="fill:#ec7857;fill-opacity:1;fill-rule:nonzero;stroke:none"
         d="m 2137.4,2943.34 c 8.4,34.4 -10.5,91.68 -10.5,91.68 4.53,-3.39 8.99,-6.82 13.36,-10.27 0,0 3.7,7.2 10.37,19.73 7.38,-73.33 -13.23,-101.14 -13.23,-101.14" /><path
         id="path238"
         style="fill:#a3a2c0;fill-opacity:1;fill-rule:nonzero;stroke:none"
         d="m 1802.08,1160.96 c -67.13,38.57 -90.61,77.16 -130.87,144.27 -23.91,39.87 -46.06,73.22 -60.1,93.72 -9.72,14.2 -10.85,32.57 -2.92,47.85 0.6,1.18 1.23,2.37 1.88,3.6 15.78,29.84 41.98,71.88 64.58,72.96 l 25.57,-13.92 88.44,-48.17 c 0,0 38.58,-88.66 36.89,-127.37 -1.43,-33.8 63.83,-112.09 83.58,-156.14 1.67,-3.72 3,-7.19 3.96,-10.39 0.67,-2.29 1.15,-4.43 1.4,-6.41 4.73,-37.2 -45.3,-38.62 -112.41,0" /><path
         id="path240"
         style="fill:#2f2a42;fill-opacity:1;fill-rule:nonzero;stroke:none"
         d="m 1802.08,1160.96 c -67.13,38.57 -90.61,77.16 -130.87,144.27 -23.91,39.87 -46.06,73.22 -60.1,93.72 -9.72,14.2 -10.85,32.57 -2.92,47.85 0.6,1.18 1.23,2.37 1.88,3.6 3.83,-15.58 14.45,-50.63 37.23,-77.22 30.2,-35.23 74.54,-114.5 85.09,-129.61 10.54,-15.09 85.46,-79.82 132.6,-89.33 38.23,-7.74 45.2,0.4 48.1,13.13 0.67,-2.29 1.15,-4.43 1.4,-6.41 4.73,-37.2 -45.3,-38.62 -112.41,0" /><path
         id="path242"
         style="fill:#878ba8;fill-opacity:1;fill-rule:nonzero;stroke:none"
         d="m 1889.62,1151.22 c -6.29,0 -14.33,0.93 -24.63,3.02 -47.14,9.51 -122.06,74.24 -132.6,89.33 -4.8,6.87 -16.57,26.98 -30.82,50.19 1.54,18.84 1.08,35.46 -0.02,50.43 21.02,-34.02 45.7,-67 61.79,-85.94 25.49,-29.96 80.22,-81.02 136.02,-81.02 3.26,0 6.51,0.17 9.77,0.53 1.67,-3.72 3,-7.19 3.96,-10.39 -2.12,-9.3 -6.41,-16.15 -23.47,-16.15" /><path
         id="path244"
         style="fill:#2f2a42;fill-opacity:1;fill-rule:nonzero;stroke:none"
         d="m 1884.66,1132.53 c -20.29,0 -49.34,9.3 -82.58,28.43 -53.4,30.68 -79.18,61.38 -107.76,106.44 3.83,7.28 6.29,15.43 7.09,24.43 0.05,0.64 0.11,1.29 0.16,1.93 14.25,-23.21 26.02,-43.32 30.82,-50.19 10.54,-15.09 85.46,-79.82 132.6,-89.33 10.3,-2.09 18.34,-3.02 24.63,-3.02 17.06,0 21.35,6.85 23.47,16.15 v 0 c 0.67,-2.29 1.15,-4.43 1.4,-6.41 0.21,-1.62 0.31,-3.16 0.31,-4.64 0.02,-15.72 -11.26,-23.79 -30.14,-23.79" /><path
         id="path246"
         style="fill:#a3a2c0;fill-opacity:1;fill-rule:nonzero;stroke:none"
         d="m 1777.74,932.488 c -1.54,-44.519 -33.2,-85.468 -103.09,-73.539 -78.74,13.41 -100.76,78.852 -119.22,119.121 -18.44,40.26 -62.08,179.51 -80.53,234.88 -9.99,30 -7.04,63.02 -2.24,86.95 4.05,20.24 9.42,34 9.42,34 l 28.38,-4.3 160.75,-24.37 c 0,0 30.2,-63.75 36.92,-135.89 5.73,-61.74 47.08,-141.87 63.11,-195.25 v -0.051 c 2.72,-9.008 4.68,-17.238 5.66,-24.488 0.76,-5.66 1.06,-11.403 0.84,-17.063" /><path
         id="path248"
         style="fill:#878ba8;fill-opacity:1;fill-rule:nonzero;stroke:none"
         d="m 1698.08,856.859 c -7.27,0 -15.07,0.672 -23.43,2.09 -78.74,13.41 -100.76,78.852 -119.22,119.121 -18.44,40.26 -62.08,179.51 -80.53,234.88 -4.88,14.65 -6.67,30.02 -6.67,44.69 0,15.39 1.97,30.01 4.43,42.26 3.94,19.66 9.11,33.21 9.4,33.96 6.69,-22.92 17.6,-49.1 34.11,-69.55 5.4,-29.67 14.24,-61.87 25.85,-84.07 27.65,-52.85 48.3,-169.04 96.47,-220.631 23.64,-25.3 56.46,-40.507 83.56,-40.507 28.15,0 50.12,16.41 49.19,54.937 2.72,-9.008 4.68,-17.238 5.66,-24.488 0.6,-4.422 0.91,-8.891 0.91,-13.332 0,-1.25 -0.02,-2.489 -0.07,-3.731 -1.35,-39.199 -26.06,-75.629 -79.66,-75.629" /><path
         id="path250"
         style="fill:#2f2a42;fill-opacity:1;fill-rule:nonzero;stroke:none"
         d="m 1777.74,932.488 c -1.54,-44.519 -33.2,-85.468 -103.09,-73.527 -78.74,13.398 -100.76,78.84 -119.22,119.109 -18.44,40.26 -62.08,179.51 -80.53,234.88 -9.99,30 -7.04,63.02 -2.24,86.95 4.05,-24.64 25.15,-104.1 49.93,-167.37 40.25,-102.75 72.39,-193.05 100.42,-223.241 28.03,-30.16 138.65,-50.289 154.73,23.199" /><path
         id="path252"
         style="fill:#31477d;fill-opacity:1;fill-rule:nonzero;stroke:none"
         d="m 954.398,3495.59 63.042,-19.86 c 0,0 -10.66,-44.55 -28.889,-44.52 -18.223,0.04 -39.602,9.74 -34.153,64.38" /><path
         id="path254"
         style="fill:#2b3582;fill-opacity:1;fill-rule:nonzero;stroke:none"
         d="m 1671.21,2067.17 261.73,-80.74 c 0,0 -89.82,-124.1 -143.57,-202.34 13.54,50.96 24.91,82.89 12.71,113.4 -13.42,33.58 -130.87,169.68 -130.87,169.68 m 582.1,24.21 c -3.19,12.05 -9.36,23.07 -17.53,32.49 -27.08,31.2 -107.11,113.83 -267.61,209.86 -204.68,122.46 -243.28,112.4 -345.61,187.9 0,0 -350,39.36 -493.7,-99.56 -1.49,-1.43 -2.95,-2.89 -4.38,-4.35 -13.04,-13.35 -24.21,-28.24 -33.07,-44.91 0,0 0,-181.55 71.73,-247.79 71.72,-66.23 296.66,-300.63 318.48,-298.48 0,0 1.67,-36.41 28.52,-38.1 0,0 -36.92,-149.31 -21.83,-213.09 0,0 -23.48,-53.68 -11.72,-92.25 11.72,-38.62 -3.37,-77.19 -3.37,-100.68 0,-23.5 20.13,-127.52 85.56,-149.33 65.44,-21.8 137.59,1.68 142.63,58.74 5.03,57.02 -8.38,93.94 -3.35,125.83 1.36,8.63 7.3,34 15.52,67.52 24.17,-15.1 62.24,-26.48 75.08,-23.91 16.76,3.35 51.99,102.35 73.82,109.05 21.81,6.72 98.98,102.36 154.34,156.04 53.08,51.46 275.66,216.83 236.49,365.02" /><path
         id="path256"
         style="fill:#52526b;fill-opacity:1;fill-rule:nonzero;stroke:none"
         d="m 1136.46,2406.77 -9.92,-1.66 c -0.93,5.53 -1.63,9.84 -2.06,12.61 1.43,1.46 2.89,2.92 4.38,4.35 l 4.98,0.75 c 0,-0.02 0.93,-5.96 2.62,-16.05" /><path
         id="path258"
         style="fill:#52526b;fill-opacity:1;fill-rule:nonzero;stroke:none"
         d="m 1507.27,1326.73 c -2.19,-10.12 -4.68,-20.84 -7.43,-31.87 l 9.77,-2.44 c 2.77,11.14 5.31,21.98 7.5,32.2 l -9.84,2.11 m 9.26,54.31 c -1.03,-9.44 -2.64,-20.26 -4.83,-32.14 l 9.91,-1.81 c 2.22,12.13 3.88,23.17 4.91,32.87 l -9.99,1.08 m 11.22,27.66 c -0.27,5.13 -0.4,10.44 -0.4,16.23 0,3.64 0.05,7.3 0.15,11 l -10.06,0.25 c -0.11,-3.78 -0.15,-7.53 -0.15,-11.25 0,-5.96 0.12,-11.45 0.4,-16.79 0.1,-1.58 0.12,-3.25 0.15,-4.96 l 10.06,0.05 c -0.02,1.9 -0.07,3.7 -0.15,5.47 m -7.32,83.15 c -0.33,-5.91 -0.7,-11.78 -1.06,-17.56 -0.32,-5.12 -0.65,-10.2 -0.93,-15.24 l 10.04,-0.54 c 0.28,5.01 0.61,10.04 0.93,15.14 0.36,5.81 0.74,11.7 1.06,17.65 l -10.04,0.55 m 10.92,55.51 -10.04,-0.4 c 0.2,-5.55 0.33,-11.35 0.33,-17.23 0,-4.93 -0.08,-9.95 -0.23,-15.28 l 10.07,-0.28 c 0.15,5.44 0.22,10.52 0.22,15.56 0,6.01 -0.12,11.95 -0.35,17.63 m 0.51,54.67 -9.99,1.23 c -1.39,-11.25 -2.07,-20.73 -2.07,-29.01 0,-1.56 0.02,-3.08 0.08,-4.56 l 10.06,0.35 c -0.05,1.37 -0.07,2.77 -0.07,4.21 0,7.87 0.65,16.96 1.99,27.78 m -0.48,56.45 c -2.57,-12.69 -4.51,-23 -6.12,-32.46 l 9.92,-1.69 c 1.58,9.36 3.52,19.58 6.07,32.16 l -9.87,1.99 m 11.35,54.51 c -1.69,-8.3 -3.5,-16.86 -5.34,-25.55 l -1.38,-6.61 9.84,-2.07 1.41,6.6 c 1.84,8.7 3.65,17.32 5.33,25.62 l -9.86,2.01 m 8.78,54.29 c -0.63,-8.31 -2.09,-18.8 -4.48,-32.05 l 9.92,-1.78 c 2.44,13.59 3.95,24.41 4.6,33.07 l -10.04,0.76 m 2.95,55.11 -10,-1.16 c 1.14,-9.78 2.57,-21.94 5.89,-33.16 l 9.64,2.84 c -3.07,10.42 -4.43,22.1 -5.53,31.48 m -23.51,52.87 -4.08,-9.21 c 7.35,-3.24 11.66,-10.03 14.38,-22.77 l 9.86,2.09 c -2.32,10.82 -6.72,23.96 -20.16,29.89 m -42.71,33.32 -6.59,-7.59 c 10.06,-8.76 18.59,-15.96 25.34,-21.39 l 6.32,7.85 c -6.65,5.33 -15.08,12.45 -25.07,21.13 m -41.5,37.06 -6.77,-7.46 c 8.58,-7.8 16.79,-15.19 24.51,-22.07 l 6.7,7.53 c -7.7,6.84 -15.88,14.22 -24.44,22 m -41.02,37.67 -6.85,-7.37 c 8.23,-7.66 16.36,-15.13 24.24,-22.36 l 6.8,7.44 c -7.88,7.19 -15.96,14.66 -24.19,22.29 m -40.72,38.03 -6.9,-7.35 c 8.06,-7.55 16.09,-15.07 24.06,-22.53 l 6.87,7.38 c -7.95,7.42 -16,14.95 -24.03,22.5 m -40.47,38.25 -6.95,-7.3 c 7.88,-7.48 15.89,-15.04 23.94,-22.67 l 6.89,7.32 c -8.02,7.6 -16.03,15.18 -23.88,22.65 m -40.27,38.48 -6.99,-7.25 c 7.67,-7.37 15.63,-15 23.8,-22.8 l 6.95,7.27 c -8.15,7.81 -16.11,15.43 -23.76,22.78 m -40.01,38.76 -7.05,-7.2 c 7.27,-7.1 15.2,-14.8 23.64,-22.98 l 7.02,7.25 c -8.46,8.15 -16.37,15.83 -23.61,22.93 m -39.41,39.31 -7.28,-6.95 c 4.91,-5.16 12.76,-13.09 23.33,-23.55 l 7.07,7.14 c -10.49,10.39 -18.27,18.25 -23.12,23.36 m -24.69,47.16 -9.47,-3.45 c 4.41,-12.13 8.87,-22.5 13.27,-30.83 l 8.88,4.71 c -4.15,7.9 -8.43,17.87 -12.68,29.57 m -16.16,52.77 -9.74,-2.58 c 3.02,-11.41 6.09,-22.13 9.11,-31.82 l 9.61,3 c -2.99,9.56 -6.01,20.11 -8.98,31.4 m -12.81,53.91 -9.84,-2.11 c 2.42,-11.17 4.88,-22.02 7.32,-32.19 l 9.79,2.37 c -2.44,10.09 -4.88,20.84 -7.27,31.93 m -10.79,54.46 -9.9,-1.8 c 1.99,-10.9 4.06,-21.8 6.19,-32.4 l 9.87,1.97 c -2.12,10.54 -4.18,21.38 -6.16,32.23" /><path
         id="path260"
         style="fill:#52526b;fill-opacity:1;fill-rule:nonzero;stroke:none"
         d="m 1631.64,2136.03 c 0,0 11.83,-3.96 31.21,-10.47 l 3.22,9.53 c -19.4,6.52 -31.23,10.5 -31.23,10.5 l -3.2,-9.56" /><path
         id="path262"
         style="fill:#52526b;fill-opacity:1;fill-rule:nonzero;stroke:none"
         d="m 1718.67,2117.32 c -11.13,3.77 -21.59,7.3 -31.08,10.52 l -3.2,-9.54 c 9.46,-3.19 19.91,-6.74 31.06,-10.52 l 3.22,9.54" /><path
         id="path264"
         style="fill:#52526b;fill-opacity:1;fill-rule:nonzero;stroke:none"
         d="m 1781.76,1715.99 8.24,-5.81 18.87,26.79 -8.23,5.81 -18.88,-26.79" /><path
         id="path266"
         style="fill:#52526b;fill-opacity:1;fill-rule:nonzero;stroke:none"
         d="m 1749.8,1670.63 8.23,-5.79 18.87,26.78 -8.22,5.82 -18.88,-26.81" /><path
         id="path268"
         style="fill:#52526b;fill-opacity:1;fill-rule:nonzero;stroke:none"
         d="m 1732.38,1645.94 c 0.32,-5.58 0.48,-11.15 0.54,-16.74 l 12.03,17.07 -8.24,5.82 -4.33,-6.15" /><path
         id="path270"
         style="fill:#52526b;fill-opacity:1;fill-rule:nonzero;stroke:none"
         d="m 1771.25,2099.45 c -10.62,3.63 -21.04,7.15 -31.06,10.57 l -3.25,-9.53 c 10.02,-3.4 20.44,-6.95 31.03,-10.58 l 3.28,9.54" /><path
         id="path272"
         style="fill:#52526b;fill-opacity:1;fill-rule:nonzero;stroke:none"
         d="m 1928.51,2044.59 c -9.64,3.48 -20,7.2 -30.9,11.04 l -3.35,-9.48 c 10.87,-3.85 21.21,-7.55 30.83,-11.02 l 3.42,9.46" /><path
         id="path274"
         style="fill:#52526b;fill-opacity:1;fill-rule:nonzero;stroke:none"
         d="m 1823.74,2081.41 c -10.34,3.57 -20.74,7.14 -31.03,10.67 l -3.25,-9.51 c 10.27,-3.53 20.64,-7.1 30.98,-10.68 l 3.3,9.52" /><path
         id="path276"
         style="fill:#52526b;fill-opacity:1;fill-rule:nonzero;stroke:none"
         d="m 1916.18,1892.96 7.45,-6.77 c 6.67,7.35 14.45,15.88 21.95,24.42 l -7.53,6.64 c -7.47,-8.46 -15.23,-16.97 -21.87,-24.29" /><path
         id="path278"
         style="fill:#52526b;fill-opacity:1;fill-rule:nonzero;stroke:none"
         d="m 1952.77,1934.34 7.73,-6.5 c 8.21,9.79 14.9,18.29 20.46,26.08 l -8.18,5.86 c -5.41,-7.55 -11.95,-15.88 -20.01,-25.44" /><path
         id="path280"
         style="fill:#52526b;fill-opacity:1;fill-rule:nonzero;stroke:none"
         d="m 1980.71,2024.93 c -7.35,3 -17.72,7 -30.81,11.86 l -3.49,-9.47 c 12.98,-4.8 23.25,-8.73 30.5,-11.72 l 3.8,9.33" /><path
         id="path282"
         style="fill:#52526b;fill-opacity:1;fill-rule:nonzero;stroke:none"
         d="m 2000.89,2008.62 -9.48,-3.34 c 0.47,-1.38 0.72,-2.99 0.72,-4.73 0,-5.69 -2.51,-13.14 -7.45,-22.22 l 8.84,-4.81 c 5.84,10.7 8.68,19.56 8.68,27.03 0,2.89 -0.43,5.61 -1.31,8.07" /><path
         id="path284"
         style="fill:#52526b;fill-opacity:1;fill-rule:nonzero;stroke:none"
         d="m 1813.73,1761.34 8.22,-5.81 18.88,26.79 -8.23,5.81 -18.87,-26.79" /><path
         id="path286"
         style="fill:#52526b;fill-opacity:1;fill-rule:nonzero;stroke:none"
         d="m 1879.14,1851.48 7.65,-6.51 c 5.66,6.66 12.33,14.22 21.59,24.45 l -7.48,6.75 c -9.33,-10.31 -16.05,-17.94 -21.76,-24.69" /><path
         id="path288"
         style="fill:#52526b;fill-opacity:1;fill-rule:nonzero;stroke:none"
         d="m 1861.72,1829.43 -16.03,-22.74 8.23,-5.79 16.03,22.72 c 0.9,1.29 1.84,2.6 2.84,3.93 l -8.08,6.01 c -1.05,-1.4 -2.03,-2.76 -2.99,-4.13" /><path
         id="path290"
         style="fill:#52526b;fill-opacity:1;fill-rule:nonzero;stroke:none"
         d="m 1841.88,2064.47 c 10.53,-3.65 20.9,-7.24 30.96,-10.8 l 3.33,9.52 c -10.07,3.52 -20.44,7.14 -30.96,10.79 l -3.33,-9.51" /><path
         id="path292"
         style="fill:#95bafd;fill-opacity:1;fill-rule:nonzero;stroke:none"
         d="m 1968.17,3137.84 c -11.73,-52.5 -61.58,-100.36 -101.19,-131.17 h -0.03 c -28.36,-22.07 -51.46,-35.38 -51.46,-35.38 l -23.51,20.26 -72.96,62.79 c 0,0 0,0 -35.05,-72.33 -35.04,-72.33 -25.35,-257.36 -29.4,-310.01 -3.55,-45.95 67.3,-153.59 81.54,-190.36 2.09,-5.39 2.97,-9.24 2.22,-11.17 -5.89,-15.11 -181.01,-37.75 -294.89,0 -63.27,20.98 -162.61,-12.3 -239.68,-45.57 -61.61,-26.6 -109,-53.2 -112.35,-52.09 -7.55,2.52 -14.14,339.26 -49.38,488.98 -35.23,149.69 23.48,542.37 23.48,542.37 l -47.41,15.05 -21.373,6.77 c -62.082,-3.37 -42.329,69.61 -42.329,69.61 0,0 2.067,-73.81 39.817,-54.59 16.885,8.61 16.155,58.74 10.165,111.52 -7.325,64.68 -22.497,133.33 -22.724,134.39 0.731,-0.2 12.106,-3.25 30.004,-8.31 59.69,-16.81 191.82,-55.97 241.77,-85.71 15,-8.94 51.24,-34.94 79.28,-55.39 20.69,-15.06 36.89,-27.14 36.89,-27.14 98.81,-54.43 130.47,-50.83 211.01,-74.74 3.52,-1.06 7.09,-2.12 10.66,-3.15 97.86,-29.07 209.79,-63.59 251.35,-133.56 32.11,-54.11 86.17,-117.1 111.56,-145.61 8.66,-9.75 13.99,-15.46 13.99,-15.46" /><path
         id="path294"
         style="fill:#2f2a42;fill-opacity:1;fill-rule:nonzero;stroke:none"
         d="m 1018.1,3419.21 -21.373,6.77 c -62.082,-3.37 -42.329,69.61 -42.329,69.61 0,0 2.067,-73.81 39.817,-54.59 16.885,8.61 16.155,58.74 10.165,111.52 -7.325,64.68 -22.497,133.33 -22.724,134.39 0.731,-0.2 12.106,-3.25 30.004,-8.31 14.92,-60.27 41.7,-193.68 6.44,-259.39" /><path
         id="path296"
         style="fill:#2f2a42;fill-opacity:1;fill-rule:nonzero;stroke:none"
         d="m 1968.17,3137.84 c -11.73,-52.5 -61.58,-100.36 -101.19,-131.17 h -0.03 c -28.36,-22.07 -51.46,-35.38 -51.46,-35.38 l -23.51,20.26 c 79.83,54.01 136.35,121.93 158.3,166.15 8.66,-9.75 17.89,-19.86 17.89,-19.86" /><path
         id="path298"
         style="fill:#2f2a42;fill-opacity:1;fill-rule:nonzero;stroke:none"
         d="m 1572.25,3437.84 c -15.76,-41.96 -39.69,-79.81 -162.78,-50.04 -138.61,33.52 -62.82,139.51 -62.82,139.51 20.68,-15.05 22.95,-16.95 22.95,-16.95 98.81,-54.43 101.44,-42.76 181.98,-66.67 3.52,-1.05 17.1,-4.82 20.67,-5.85" /><path
         id="path300"
         style="fill:#b3b9b4;fill-opacity:1;fill-rule:nonzero;stroke:none"
         d="m 1654.57,2672 v 0 0 c 4.05,52.65 -5.64,237.68 29.4,310.01 35.05,72.33 35.05,72.33 35.05,72.33 l 72.96,-62.79 v 0 l 23.51,-20.26 c 0,0 11.73,6.76 28.74,18.64 v 0 c -17.01,-11.88 -28.74,-18.64 -28.74,-18.64 l -96.47,83.05 c 0,0 0,0 -35.05,-72.33 -35.04,-72.33 -25.35,-257.36 -29.4,-310.01" /><path
         id="path302"
         style="fill:#32689a;fill-opacity:1;fill-rule:nonzero;stroke:none"
         d="m 1654.57,2672 c -69.14,164.42 51.87,465.65 51.87,465.65 23.97,-46.58 89.64,-90.19 129.17,-113.47 -13.61,-11.21 -28.19,-22.19 -43.63,-32.63 v 0 l -72.96,62.79 c 0,0 0,0 -35.05,-72.33 -35.04,-72.33 -25.35,-257.36 -29.4,-310.01 v 0" /><path
         id="path304"
         style="fill:#2f2a42;fill-opacity:1;fill-rule:nonzero;stroke:none"
         d="m 1815.49,2971.29 -23.51,20.26 v 0 c 15.44,10.44 30.02,21.42 43.63,32.63 18.08,-10.64 30.69,-17.03 31.34,-17.51 -8.15,-6.34 -15.86,-11.96 -22.72,-16.74 -17.01,-11.88 -28.74,-18.64 -28.74,-18.64" /><path
         id="path306"
         style="fill:#c5cac1;fill-opacity:1;fill-rule:nonzero;stroke:none"
         d="m 1032.6,3414.6 -35.873,11.38 c -1.399,-0.08 -2.758,-0.12 -4.075,-0.12 -34.425,0 -41.254,25.32 -41.242,45.44 -0.012,-20.12 6.817,-45.44 41.242,-45.44 1.317,0 2.676,0.04 4.075,0.12 l 21.373,-6.77 v 0 l 14.51,-4.61 h -0.01" /><path
         id="path308"
         style="fill:#2f2a42;fill-opacity:1;fill-rule:nonzero;stroke:none"
         d="m 1065.51,3404.16 -32.91,10.44 h 0.01 l 32.9,-10.44 v 0" /><path
         id="path310"
         style="fill:#458afb;fill-opacity:1;fill-rule:nonzero;stroke:none"
         d="m 1091.67,2372.78 c -0.1,0 -0.19,0.01 -0.26,0.03 -7.55,2.52 -14.14,339.26 -49.38,488.98 -8.14,34.57 -11.26,82.1 -11.26,134.77 0.02,175.36 34.74,407.6 34.74,407.6 v 0 0 l -32.9,10.44 -14.51,4.61 c 15.29,28.49 18.91,69.73 16.9,112.2 40.16,-26.9 111.03,-71.57 158.03,-85.33 0,0 -19.3,-123.35 -37.75,-283.96 -18.47,-160.64 -6.69,-271.08 30.2,-383.47 36.92,-112.42 119.34,-220.1 233.73,-231.85 98.26,-10.08 194.3,-70.54 277.18,-70.54 13.62,0 26.86,1.63 39.72,5.38 1.58,-4.08 2.47,-7.28 2.48,-9.43 0.01,-0.69 -0.08,-1.27 -0.26,-1.74 -3.51,-9 -67.01,-20.66 -141.85,-20.66 -50.86,0 -106.96,5.38 -153.04,20.66 -13.71,4.55 -29.14,6.55 -45.65,6.55 -59.66,0 -133.67,-26.06 -194.03,-52.12 -60.36,-26.06 -107.06,-52.12 -112.09,-52.12" /><path
         id="path312"
         style="fill:#458afb;fill-opacity:1;fill-rule:nonzero;stroke:none"
         d="m 1018.1,3419.21 -21.373,6.77 c -1.399,-0.08 -2.758,-0.12 -4.075,-0.12 -34.425,0 -41.254,25.32 -41.242,45.44 0.008,13.28 2.988,24.29 2.988,24.29 v 0 c 0.004,-0.11 1.645,-57.78 28.137,-57.78 3.453,0 7.328,0.98 11.68,3.19 10.295,5.25 14.035,25.91 14.045,53.2 0,17.49 -1.54,37.7 -3.88,58.32 0,0 12.01,-8.65 30.62,-21.11 2.01,-42.47 -1.61,-83.71 -16.9,-112.2 v 0" /><path
         id="path314"
         style="fill:#2f2a42;fill-opacity:1;fill-rule:nonzero;stroke:none"
         d="m 1769.88,3815.19 -0.02,0.01 c -2.85,-2.82 -4.74,-4.28 -4.74,-4.28 L 1388.49,3679.1 c 0,0 -56.29,25.91 -52.99,124.29 2.36,70.96 48.14,103.48 73.47,116.1 -3.08,3.09 -5.89,6.42 -8.19,9.42 -3.42,4.43 -0.33,10.84 5.26,10.96 4.68,0.11 8.8,-0.11 12.45,-0.61 -1.11,4.7 -1.71,9.46 -2.05,13.6 -0.45,5.58 5.62,9.25 10.4,6.34 7.65,-4.7 12.92,-9.4 16.47,-13.82 l 0.49,0.5 c 36.52,36.83 85.46,58.69 137.24,61.65 28.31,1.61 62.82,4.11 97.14,7.9 65.94,7.3 117.25,-4.57 136.47,15.22 0,0 81.21,-135.21 -44.77,-215.46" /><path
         id="path316"
         style="fill:#2f2a42;fill-opacity:1;fill-rule:nonzero;stroke:none"
         d="m 1762.57,3839.14 c 0,0 38.52,-90.17 -25.29,-143.89 0,0 -9.43,107.97 25.29,143.89" /><path
         id="path318"
         style="fill:#f39c72;fill-opacity:1;fill-rule:nonzero;stroke:none"
         d="m 1538.68,3421.49 -1.94,-1.58 c -7.77,-6.12 -19.43,-12.91 -36.74,-18.39 -32.7,-10.36 -104.92,21.56 -136.32,36.75 -8.41,4.06 -12.33,13.86 -9.04,22.6 17.55,46.59 25.93,96.15 25.87,146.14 -0.08,76.35 30.77,146.51 30.77,146.51 -7.78,-36.05 5.84,-88.08 26.8,-140.41 34.54,-86.27 89.02,-173.45 100.6,-191.62" /><path
         id="path320"
         style="fill:#f39c72;fill-opacity:1;fill-rule:nonzero;stroke:none"
         d="m 1712.39,3650.51 c 0.11,-15.12 -2.28,-30.04 -7.07,-44.19 -4.09,-12.24 -9.95,-23.93 -17.45,-34.63 l -49.89,-71.15 c -18.56,-26.46 -51.92,-38.18 -82.92,-29.05 -35.53,10.47 -81.5,30.53 -116.24,68.53 -65.57,71.71 -36.18,191.83 -36.18,191.83 0,0 36.61,120.18 149.11,141.28 112.5,21.11 201.96,-58.35 201.96,-58.35 l -9.33,-88.12 c -0.51,-4.92 -1.29,-9.79 -2.35,-14.58 -3.5,-16.13 -9.94,-31.52 -19.04,-45.42 l -10.6,-16.15" /><path
         id="path322"
         style="fill:#2f2a42;fill-opacity:1;fill-rule:nonzero;stroke:none"
         d="m 1652.35,3760.82 c 0,0 -43.11,69.53 -94.62,29.23 l 3.92,-14.54 c 0,0 48.06,24.65 83.11,-29.68 l 7.59,14.99" /><path
         id="path324"
         style="fill:#ec7857;fill-opacity:1;fill-rule:nonzero;stroke:none"
         d="m 1712.39,3650.51 c 0.11,-15.12 -2.28,-30.04 -7.07,-44.19 -10.04,11.66 -32.79,24.95 -83.82,30.47 0,0 31.82,14.95 58.37,8.89 7.13,-1.63 13.8,4.1 13.27,11.4 l -3.57,48.86 c 0,0 7.54,7.71 19.62,8.32 7.38,0.37 21.58,-0.49 32.84,-2.18 -3.5,-16.13 -9.94,-31.52 -19.04,-45.42 l -10.6,-16.15" /><path
         id="path326"
         style="fill:#2f2a42;fill-opacity:1;fill-rule:nonzero;stroke:none"
         d="m 1742.91,3726.31 c -19.48,3.48 -36.24,1.82 -36.24,1.82 l -5.41,-14.3 c 14.81,1.24 27.25,-0.18 37.67,-3.15 5.15,-1.47 10.38,1.38 11.27,6.07 l 0.03,0.17 c 0.81,4.31 -2.47,8.52 -7.32,9.39" /><path
         id="path328"
         style="fill:#ffffff;fill-opacity:1;fill-rule:nonzero;stroke:none"
         d="m 1672.36,3585.65 -131.84,46.19 c 0,0 -2.54,-76.71 69.72,-92.62 56.67,-12.47 62.12,46.43 62.12,46.43" /><path
         id="path330"
         style="fill:#ec7857;fill-opacity:1;fill-rule:nonzero;stroke:none"
         d="m 1547.65,3475.88 -6.05,-51.77 c -0.9,-0.84 -1.86,-1.72 -2.92,-2.62 l -1.94,-1.58 c -19.41,8.89 -100.58,49.53 -108.66,109.2 -5.14,37.75 2.34,66.2 10,84 6.07,14.17 12.27,21.61 12.27,21.61 16.17,-127.71 97.3,-158.84 97.3,-158.84" /><path
         id="path332"
         style="fill:#f39c72;fill-opacity:1;fill-rule:nonzero;stroke:none"
         d="m 1442.28,3742.99 c 0,0 -13.44,54.79 -55.95,42.18 -42.51,-12.62 -49.2,-128.4 9.79,-120.99 59,7.42 46.16,78.81 46.16,78.81" /><path
         id="path334"
         style="fill:#2f2a42;fill-opacity:1;fill-rule:nonzero;stroke:none"
         d="m 1569.38,3875.65 c 0,0 -24.85,-2.57 -27.85,-34.01 -3,-31.44 -8.36,-84.93 -48.82,-83.8 -40.45,1.12 -44.39,-48.02 -44.39,-48.02 l -28.95,7 c 0,0 -2.86,87.36 16.41,117.13 19.27,29.76 100.44,72.71 133.6,41.7" /><path
         id="path336"
         style="fill:#2f2a42;fill-opacity:1;fill-rule:nonzero;stroke:none"
         d="m 1564.77,3737.53 c 0,0 13.85,17.7 41.58,9.58 27.73,-8.13 26.2,-37.69 26.2,-37.69 0,0 -15.53,38.75 -67.78,28.11" /><path
         id="path338"
         style="fill:#2f2a42;fill-opacity:1;fill-rule:nonzero;stroke:none"
         d="m 1695.37,3688.75 c 0,0 9.86,6.05 21.31,1.61 11.45,-4.44 7.28,-19.37 7.28,-19.37 0,0 -2.65,19.22 -28.59,17.76" /><path
         id="path340"
         style="fill:#2f2a42;fill-opacity:1;fill-rule:nonzero;stroke:none"
         d="m 2468.9,3108.18 -462.38,292.19 193.47,306.16 462.37,-292.18 -193.46,-306.17" /><path
         id="path342"
         style="fill:#63246d;fill-opacity:1;fill-rule:nonzero;stroke:none"
         d="m 2662.37,3414.36 -193.47,-306.18 -462.38,292.18 20.01,1.41 627.61,44.31 5.55,-21.37 -0.01,-0.02 2.69,-10.33" /><path
         id="path344"
         style="fill:#ffffff;fill-opacity:1;fill-rule:nonzero;stroke:none"
         d="m 2659.69,3424.71 -185.02,-293.66 c -6.35,4.02 -3.55,2.25 -14.01,8.86 l -126.69,292.68 320.17,13.49 5.55,-21.37" /><path
         id="path346"
         style="fill:#b73bc1;fill-opacity:1;fill-rule:nonzero;stroke:none"
         d="m 2460.66,3139.91 -442.17,279.41 193.47,306.16 442.17,-279.41 -193.47,-306.16" /><path
         id="path348"
         style="fill:#f39c72;fill-opacity:1;fill-rule:nonzero;stroke:none"
         d="m 2510.36,3568.07 -0.06,0.08 c -4.35,8.01 -13.91,14.85 -20.52,15.81 -0.06,6.9 -6.75,13.38 -15.05,16.97 -4.83,2.09 -10.25,2.22 -15.33,0.84 -2.35,8.44 -11.35,15.04 -17.4,13.16 0,0 -1.44,-0.28 -3.9,-0.85 -0.66,6.05 -4.3,9.87 -4.3,9.87 h -0.04 c -3.93,9.04 -19.01,16.54 -25.81,14.44 0,0 -57.57,-10.32 -71.19,-50.2 -13.63,-39.87 -31.1,-85.95 -10.71,-83.12 5.84,0.8 12.61,6.47 19.27,14.68 -7.19,-24.15 -9.84,-42.76 3.35,-40.93 7.33,1.01 16.13,9.68 24.33,21.46 -5.54,-20.6 -6.5,-35.5 5.36,-33.86 10.71,1.49 24.55,19.27 35.07,39.24 -6.8,-23.32 -9.03,-41.03 3.86,-39.24 15.78,2.19 26.86,34.27 42.7,58.77 18.58,28.7 17.93,11.79 38,19.52 l 14.65,-9.25 c 7.12,17.53 -1.49,31.38 -2.28,32.61" /><path
         id="path350"
         style="fill:#2f2a42;fill-opacity:1;fill-rule:nonzero;stroke:none"
         d="m 1346.65,3527.31 c 0,0 15.96,132.87 -39.11,143.68 -106.96,21 -225.73,-137.38 -290.1,-302.06 -96.893,-247.9 15.05,-434.02 15.05,-434.02 l 1.98,94.93 c 0,0 -8.8,206.43 86.84,369.65 95.63,163.22 162.32,207.26 176.17,195.93 13.84,-11.32 14.52,-42.9 14.52,-42.9 l 34.65,-25.21" /><path
         id="path352"
         style="fill:#2f2a42;fill-opacity:1;fill-rule:nonzero;stroke:none"
         d="m 1591.27,3432.47 c 0,0 31.99,82.72 134.54,45.86 89.69,-32.25 80.43,-127.86 66.58,-253.7 -13.84,-125.83 -135.72,-437.05 -135.72,-437.05 0,0 -5.18,109.64 8.66,175.07 0,0 83.89,276.67 53.69,386.14 -30.2,109.48 -97.52,74.6 -97.52,74.6 l -30.23,9.08" /></g></g></svg>